<?xml version="1.0" encoding="utf-8"?>
<!-- Generator: Adobe Illustrator 16.0.0, SVG Export Plug-In . SVG Version: 6.00 Build 0)  -->
<!DOCTYPE svg PUBLIC "-//W3C//DTD SVG 1.1//EN" "http://www.w3.org/Graphics/SVG/1.1/DTD/svg11.dtd">
<svg version="1.1" id="Layer_1" xmlns="http://www.w3.org/2000/svg" xmlns:xlink="http://www.w3.org/1999/xlink" x="0px" y="0px"
	 width="136.833px" height="136.834px" viewBox="0 0 136.833 136.834" style="enable-background:new 0 0 136.833 136.834;"
	 xml:space="preserve">
<style type="text/css">
<![CDATA[
	.st0{fill:#467593;}
	.st1{fill:#10ABB6;}
	.st2{fill:#118241;}
	.st3{fill:#E14E42;}
	.st4{fill:#E17F2C;}
	.st5{fill:#E1E1E1;}
	.st6{fill:#13B3CA;}
	.st7{fill:#143E68;}
	.st8{fill:#16467C;}
	.st9{fill:#4A86C5;}
	.st10{fill:#E5772E;}
	.st11{fill:#E62D7E;}
	.st12{fill:#E74525;}
	.st13{fill:#4E4E4E;}
	.st14{fill:#4F286E;}
	.st15{fill:#B21F2F;}
	.st16{opacity:0.15;}
	.st17{fill:#1A8ABA;}
	.st18{fill:#B5CAD7;}
	.st19{fill:#1B468E;}
	.st20{fill:#1B88AD;}
	.st21{fill:#1B92D0;}
	.st22{fill:#1D839F;}
	.st23{fill:#1D8CB2;}
	.st24{fill:#1E3F77;}
	.st25{fill:#ED2A26;}
	.st26{fill:#ED7826;}
	.st27{fill:#ED802C;}
	.st28{fill:#EDC92C;}
	.st29{fill:#EDF0F3;}
	.st30{fill:#1F7F98;}
	.st31{fill:#518E42;}
	.st32{fill:#EF4923;}
	.st33{fill:#EF4E23;}
	.st34{fill:#527FA2;}
	.st35{fill:#539A44;}
	.st36{fill:#BA202D;}
	.st37{fill:#BA202E;}
	.st38{fill:#5880C0;}
	.st39{fill:#BC2B2A;}
	.st40{fill:#F09520;}
	.st41{fill:#24488E;}
	.st42{fill:#F3C716;}
	.st43{fill:#5BA545;}
	.st44{fill:#F68D2C;}
	.st45{fill:#284A9E;}
	.st46{fill:#F9A11C;}
	.st47{fill:#5F2C80;}
	.st48{fill:#C0C130;}
	.st49{fill:#C52232;}
	.st50{fill:#C6C5C5;}
	.st51{fill:#C7D02D;}
	.st52{fill:#C7D8E5;}
	.st53{fill:#C8C8C8;}
	.st54{fill:#2E4D72;}
	.st55{fill:#FDD14C;}
	.st56{opacity:0.1;}
	.st57{fill:#FFFFFF;}
	.st58{fill:none;}
	.st59{fill:#CA2128;}
	.st60{fill:#9B4A9B;}
	.st61{fill:#CBDB2B;}
	.st62{fill:#CC202D;}
	.st63{fill:#CC3731;}
	.st64{fill:#CCCBCB;}
	.st65{fill:#CD7028;}
	.st66{fill:#303A49;}
	.st67{fill:#306B81;}
	.st68{fill:#CE6028;}
	.st69{fill:#345387;}
	.st70{fill:#37759B;}
	.st71{fill:#377CA5;}
	.st72{fill:#01A961;}
	.st73{fill-rule:evenodd;clip-rule:evenodd;fill:#FFFFFF;}
	.st74{fill:#D1D1D1;}
	.st75{fill:#D23D28;}
	.st76{fill:#D42028;}
	.st77{fill:#D42428;}
	.st78{fill:#D4E5F6;}
	.st79{fill:#3A58A6;}
	.st80{fill:#3A5A98;}
	.st81{fill:#D56727;}
	.st82{fill:#D5D5D5;}
	.st83{fill:#3C485B;}
	.st84{fill:#3D80B2;}
	.st85{fill:#702C90;}
	.st86{fill:#A52728;}
	.st87{fill:#0BA0A0;}
	.st88{fill:#0CAEB1;}
	.st89{fill:#DB6D27;}
	.st90{fill:#DC4127;}
	.st91{fill:#A91E30;}
	.st92{fill:#0EA2A4;}
	.st93{fill:#4077B5;}
	.st94{fill:#407CA8;}
	.st95{fill:#0FB2BC;}
	.st96{fill:#416B82;}
	.st97{fill:#DF8326;}
	.st98{fill:#44546B;}
]]>
</style>
<g>
	<circle class="st34" cx="68.417" cy="68.417" r="63.333"/>
	<path class="st0" d="M113.199,23.632c24.734,24.734,24.735,64.834,0,89.568c-24.732,24.732-64.834,24.733-89.567,0L113.199,23.632z
		"/>
	<g>
		<path class="st96" d="M131.468,74.288L96.683,39.503l-2.311,2.311l-4.535-4.536l-4.188,4.188l-3.813-3.813l-14.939,14.94
			L50.996,36.69l-1.551,1.551l1.125,1.125l-0.699,0.699l-3.25-3.25l-1.613,1.613l1.5,1.5l-1.449,1.449l-2.813-2.813l-3.363,3.363
			l3.063,3.063l-3.063,3.063l1.063,1.063l-1.063,1.063l2.563,2.563l-5.188,5.188L48.91,70.581l-2.647,2.646l8.349,8.348
			L39.132,97.054l34.469,34.469C104.211,129.039,128.662,104.804,131.468,74.288z"/>
	</g>
	<g>
		<g>
			<path class="st57" d="M100.951,59.868c-6.153,0-12.309,0-18.462,0c7.205,11.871-1.047,27.49-15.938,26.037
				c-9.097-0.887-17.42-10.664-13.729-21.776c0.232-0.703,0.727-1.47,1.104-2.209c0.358-0.703,0.962-1.527,0.789-2.052
				c-6.05,0-18.305,0-18.305,0v30.456c0.614,5.957,5.299,10.639,11.361,11.203h20.987h20.988
				c6.073-0.626,10.602-5.681,11.203-11.045C100.951,90.482,100.951,65.155,100.951,59.868z"/>
			<g>
				<path class="st57" d="M67.025,56.87c-2.48,0.298-3.813,0.834-5.051,1.578c-2.843,1.707-5.518,4.89-5.996,9.152
					c-0.967,8.604,5.345,14.518,12.624,14.518c5.799,0,12.854-4.143,12.782-12.781C81.318,61.471,75.042,55.906,67.025,56.87z
					 M77.913,71.86c-1.057,4.354-5.889,7.647-10.888,6.943c-4.779-0.672-9.915-6.611-7.103-13.254
					c1.036-2.445,3.372-5.188,8.206-5.523C74.066,59.614,79.595,64.921,77.913,71.86z"/>
			</g>
		</g>
		<g>
			<path class="st57" d="M97.322,40.301c-1.74-1.74-4.588-3.336-7.732-3.629H68.666h-0.058H53.615v16.413h-2.683V36.672h-1.656
				v16.413h-2.685V36.828c-0.594,0.113-1.176,0.269-1.735,0.462v15.795h-2.683v-14.52c-0.854,0.527-1.607,1.122-2.222,1.735
				c-3.568,3.569-3.855,9.705-3.629,17.517h20.041c0.813-0.189,1.789-1.193,2.525-1.736c2.7-1.988,6.173-3.073,9.698-3.111h0.1
				c3.525,0.038,6.999,1.123,9.698,3.111c0.737,0.543,1.711,1.547,2.524,1.736h20.041C101.041,49.928,100.892,43.87,97.322,40.301z
				 M94.57,50.946c0,0.92-0.745,1.665-1.663,1.665h-6.933c-0.918,0-1.663-0.745-1.663-1.665v-6.931c0-0.919,0.745-1.663,1.663-1.663
				h6.933c0.918,0,1.663,0.744,1.663,1.663V50.946z"/>
		</g>
	</g>
</g>
</svg>
