<?xml version="1.0" encoding="utf-8"?>
<!-- Generator: Adobe Illustrator 16.0.0, SVG Export Plug-In . SVG Version: 6.00 Build 0)  -->
<!DOCTYPE svg PUBLIC "-//W3C//DTD SVG 1.1//EN" "http://www.w3.org/Graphics/SVG/1.1/DTD/svg11.dtd">
<svg version="1.1" id="Layer_1" xmlns="http://www.w3.org/2000/svg" xmlns:xlink="http://www.w3.org/1999/xlink" x="0px" y="0px"
	 width="136.833px" height="136.834px" viewBox="0 0 136.833 136.834" style="enable-background:new 0 0 136.833 136.834;"
	 xml:space="preserve">
<style type="text/css">
<![CDATA[
	.st0{fill:#467593;}
	.st1{fill:#10ABB6;}
	.st2{fill:#118241;}
	.st3{fill:#E14E42;}
	.st4{fill:#E17F2C;}
	.st5{fill:#E1E1E1;}
	.st6{fill:#13B3CA;}
	.st7{fill:#143E68;}
	.st8{fill:#16467C;}
	.st9{fill:#4A86C5;}
	.st10{fill:#E5772E;}
	.st11{fill:#E62D7E;}
	.st12{fill:#E74525;}
	.st13{fill:#4E4E4E;}
	.st14{fill:#4F286E;}
	.st15{fill:#B21F2F;}
	.st16{opacity:0.15;}
	.st17{fill:#1A8ABA;}
	.st18{fill:#B5CAD7;}
	.st19{fill:#1B468E;}
	.st20{fill:#1B88AD;}
	.st21{fill:#1B92D0;}
	.st22{fill:#1D839F;}
	.st23{fill:#1D8CB2;}
	.st24{fill:#1E3F77;}
	.st25{fill:#ED2A26;}
	.st26{fill:#ED7826;}
	.st27{fill:#ED802C;}
	.st28{fill:#EDC92C;}
	.st29{fill:#EDF0F3;}
	.st30{fill:#1F7F98;}
	.st31{fill:#518E42;}
	.st32{fill:#EF4923;}
	.st33{fill:#EF4E23;}
	.st34{fill:#527FA2;}
	.st35{fill:#539A44;}
	.st36{fill:#BA202D;}
	.st37{fill:#BA202E;}
	.st38{fill:#5880C0;}
	.st39{fill:#BC2B2A;}
	.st40{fill:#F09520;}
	.st41{fill:#24488E;}
	.st42{fill:#F3C716;}
	.st43{fill:#5BA545;}
	.st44{fill:#F68D2C;}
	.st45{fill:#284A9E;}
	.st46{fill:#F9A11C;}
	.st47{fill:#5F2C80;}
	.st48{fill:#C0C130;}
	.st49{fill:#C52232;}
	.st50{fill:#C6C5C5;}
	.st51{fill:#C7D02D;}
	.st52{fill:#C7D8E5;}
	.st53{fill:#C8C8C8;}
	.st54{fill:#2E4D72;}
	.st55{fill:#FDD14C;}
	.st56{opacity:0.1;}
	.st57{fill:#FFFFFF;}
	.st58{fill:none;}
	.st59{fill:#CA2128;}
	.st60{fill:#9B4A9B;}
	.st61{fill:#CBDB2B;}
	.st62{fill:#CC202D;}
	.st63{fill:#CC3731;}
	.st64{fill:#CCCBCB;}
	.st65{fill:#CD7028;}
	.st66{fill:#303A49;}
	.st67{fill:#306B81;}
	.st68{fill:#CE6028;}
	.st69{fill:#345387;}
	.st70{fill:#37759B;}
	.st71{fill:#377CA5;}
	.st72{fill:#01A961;}
	.st73{fill-rule:evenodd;clip-rule:evenodd;fill:#FFFFFF;}
	.st74{fill:#D1D1D1;}
	.st75{fill:#D23D28;}
	.st76{fill:#D42028;}
	.st77{fill:#D42428;}
	.st78{fill:#D4E5F6;}
	.st79{fill:#3A58A6;}
	.st80{fill:#3A5A98;}
	.st81{fill:#D56727;}
	.st82{fill:#D5D5D5;}
	.st83{fill:#3C485B;}
	.st84{fill:#3D80B2;}
	.st85{fill:#702C90;}
	.st86{fill:#A52728;}
	.st87{fill:#0BA0A0;}
	.st88{fill:#0CAEB1;}
	.st89{fill:#DB6D27;}
	.st90{fill:#DC4127;}
	.st91{fill:#A91E30;}
	.st92{fill:#0EA2A4;}
	.st93{fill:#4077B5;}
	.st94{fill:#407CA8;}
	.st95{fill:#0FB2BC;}
	.st96{fill:#416B82;}
	.st97{fill:#DF8326;}
	.st98{fill:#44546B;}
]]>
</style>
<g>
	<g>
		<circle class="st44" cx="68.416" cy="68.417" r="63.333"/>
	</g>
	<g>
		<g>
			<path class="st4" d="M113.201,23.63c24.732,24.732,24.733,64.832-0.001,89.566c-24.733,24.733-64.834,24.733-89.566,0.001
				L113.201,23.63z"/>
		</g>
	</g>
	<g>
		<path class="st65" d="M131.749,68.417c0-0.055-0.004-0.109-0.004-0.165L94.792,31.3l-6.687,6.688l-5-5L75.492,40.6l15.493,15.493
			l-6.137,6.137L59.98,37.363L45.492,51.85l8.25,8.25l-7,7l6.125,6.125l-7.377,7.377l9.375,9.375L41.24,103.602l28.125,28.124
			C103.903,131.217,131.749,103.077,131.749,68.417z"/>
	</g>
	<path id="Hyves_3_" class="st73" d="M88.535,30.942c1.717,0,3.447,0,5.171,0c1.79-0.114,4.549,5.063,3.794,7.274
		c-0.47,1.455-4.325,2.115-5.171,3.203c-1.465,1.864-0.914,7.646-0.914,11.531c0,10.247,0,20.207,0,31.102
		c0,1.742-0.227,5.219,0.311,5.761c0.552,0.551,2.539,0.196,3.333,0.454c1.829,0.588,4.043,4.123,2.599,6.521
		c-0.4,0.648-2.236,1.07-3.507,1.666c-3.006,1.432-8.176,3.076-12.461,2.729c-2.427-0.172-6.311-3.746-5.926-6.371
		c0.166-1.13,1.127-1.74,2.434-2.276c0.877-0.347,2.895-0.15,3.642-0.905c0.961-0.941,0.221-4.9,0.146-7.119
		c-0.029-1.354,0.031-2.298,0-3.955c0-1.185,0.12-3.281-0.146-3.65c-0.656-0.846-6.249-0.168-7.443,0
		c-5.668,0.836-8.697,1.243-13.384,2.729c-1.413,0.461-4.692,1.019-5.639,2.451c-0.973,1.492-0.188,6.507,0,8.791
		c0.093,1.057-0.301,3.076,0.168,3.785c0.62,0.988,3.182,0.542,3.778,0.754c1.473,0.513,3.627,2.775,3.363,5.016
		c-0.478,3.873-9.886,5.248-14.458,5.615c-1.761,0.129-2.412,0.174-3.649-0.135c-2.011-0.565-4.618-3.287-4.407-5.322
		c0.175-1.653,2.502-2.618,4.127-3.197c0.516-0.189,1.518-0.257,1.798-0.604c0.62-0.74,0.243-3.884,0-5.754
		c-0.672-5.571-0.815-12.313-0.906-18.057c-0.09-6.832-0.454-11.59-0.454-18.678c0-1.991,0.189-5.256-0.294-5.914
		c-0.574-0.713-2.41-0.586-3.499-1.053c-1.897-0.814-2.842-2.027-3.816-4.403c0-0.445,0-0.909,0-1.357
		c1.632-3.19,5.752-3.86,10.188-4.714c6.271-1.198,12.348-2.358,14.153,2.886c0.364,1.044,0.591,2.808,0,3.784
		c-1.095,1.813-5.328,1.422-6.235,2.9c-0.393,0.609-0.316,2.881-0.316,4.852c0,5.915-0.747,10.04-0.295,16.074
		c0.061,0.883,0.349,3.649,0.923,3.94c0.899,0.467,2.516-0.291,3.34-0.44c5.97-1.295,9.522-2.199,16.12-2.889
		c1.7-0.191,5.835-0.223,6.688-0.908c1.254-1.048,0.482-4.133,0.295-5.617c-0.522-4.539-0.462-7.766,0-12.141
		c0.188-1.665,0.718-4.879-0.146-5.771c-0.55-0.561-2.703-0.637-3.348-0.911c-2.297-0.962-5.047-3.333-4.096-6.679
		c0.242-0.896,1.619-1.619,2.57-2.109C80.382,32.046,84.433,31.775,88.535,30.942z"/>
</g>
</svg>
