<?xml version="1.0" encoding="utf-8"?>
<!-- Generator: Adobe Illustrator 16.0.0, SVG Export Plug-In . SVG Version: 6.00 Build 0)  -->
<!DOCTYPE svg PUBLIC "-//W3C//DTD SVG 1.1//EN" "http://www.w3.org/Graphics/SVG/1.1/DTD/svg11.dtd">
<svg version="1.1" id="Layer_1" xmlns="http://www.w3.org/2000/svg" xmlns:xlink="http://www.w3.org/1999/xlink" x="0px" y="0px"
	 width="136.833px" height="136.833px" viewBox="0 0 136.833 136.833" style="enable-background:new 0 0 136.833 136.833;"
	 xml:space="preserve">
<style type="text/css">
<![CDATA[
	.st0{fill:#467593;}
	.st1{fill:#10ABB6;}
	.st2{fill:#118241;}
	.st3{fill:#E14E42;}
	.st4{fill:#E17F2C;}
	.st5{fill:#E1E1E1;}
	.st6{fill:#13B3CA;}
	.st7{fill:#143E68;}
	.st8{fill:#16467C;}
	.st9{fill:#4A86C5;}
	.st10{fill:#E5772E;}
	.st11{fill:#E62D7E;}
	.st12{fill:#E74525;}
	.st13{fill:#4E4E4E;}
	.st14{fill:#4F286E;}
	.st15{fill:#B21F2F;}
	.st16{opacity:0.15;}
	.st17{fill:#1A8ABA;}
	.st18{fill:#B5CAD7;}
	.st19{fill:#1B468E;}
	.st20{fill:#1B88AD;}
	.st21{fill:#1B92D0;}
	.st22{fill:#1D839F;}
	.st23{fill:#1D8CB2;}
	.st24{fill:#1E3F77;}
	.st25{fill:#ED2A26;}
	.st26{fill:#ED7826;}
	.st27{fill:#ED802C;}
	.st28{fill:#EDC92C;}
	.st29{fill:#EDF0F3;}
	.st30{fill:#1F7F98;}
	.st31{fill:#518E42;}
	.st32{fill:#EF4923;}
	.st33{fill:#EF4E23;}
	.st34{fill:#527FA2;}
	.st35{fill:#539A44;}
	.st36{fill:#BA202D;}
	.st37{fill:#BA202E;}
	.st38{fill:#5880C0;}
	.st39{fill:#BC2B2A;}
	.st40{fill:#F09520;}
	.st41{fill:#24488E;}
	.st42{fill:#F3C716;}
	.st43{fill:#5BA545;}
	.st44{fill:#F68D2C;}
	.st45{fill:#284A9E;}
	.st46{fill:#F9A11C;}
	.st47{fill:#5F2C80;}
	.st48{fill:#C0C130;}
	.st49{fill:#C52232;}
	.st50{fill:#C6C5C5;}
	.st51{fill:#C7D02D;}
	.st52{fill:#C7D8E5;}
	.st53{fill:#C8C8C8;}
	.st54{fill:#2E4D72;}
	.st55{fill:#FDD14C;}
	.st56{opacity:0.1;}
	.st57{fill:#FFFFFF;}
	.st58{fill:none;}
	.st59{fill:#CA2128;}
	.st60{fill:#9B4A9B;}
	.st61{fill:#CBDB2B;}
	.st62{fill:#CC202D;}
	.st63{fill:#CC3731;}
	.st64{fill:#CCCBCB;}
	.st65{fill:#CD7028;}
	.st66{fill:#303A49;}
	.st67{fill:#306B81;}
	.st68{fill:#CE6028;}
	.st69{fill:#345387;}
	.st70{fill:#37759B;}
	.st71{fill:#377CA5;}
	.st72{fill:#01A961;}
	.st73{fill-rule:evenodd;clip-rule:evenodd;fill:#FFFFFF;}
	.st74{fill:#D1D1D1;}
	.st75{fill:#D23D28;}
	.st76{fill:#D42028;}
	.st77{fill:#D42428;}
	.st78{fill:#D4E5F6;}
	.st79{fill:#3A58A6;}
	.st80{fill:#3A5A98;}
	.st81{fill:#D56727;}
	.st82{fill:#D5D5D5;}
	.st83{fill:#3C485B;}
	.st84{fill:#3D80B2;}
	.st85{fill:#702C90;}
	.st86{fill:#A52728;}
	.st87{fill:#0BA0A0;}
	.st88{fill:#0CAEB1;}
	.st89{fill:#DB6D27;}
	.st90{fill:#DC4127;}
	.st91{fill:#A91E30;}
	.st92{fill:#0EA2A4;}
	.st93{fill:#4077B5;}
	.st94{fill:#407CA8;}
	.st95{fill:#0FB2BC;}
	.st96{fill:#416B82;}
	.st97{fill:#DF8326;}
	.st98{fill:#44546B;}
]]>
</style>
<g>
	<g>
		<path class="st93" d="M47.678,75.746c-2.413-3.102-5.173-6.369-5.173-11.708c0-2.936,0.872-4.656,1.734-6.717
			c-1.911,0.168-3.799,0.344-5.522,0.344c-13.945,0-23.266-7.93-26.902-17.654c-4.297,8.545-6.731,18.189-6.731,28.408
			c0,7.062,1.174,13.847,3.308,20.191c1.72-1.764,3.818-3.441,6.356-4.949C25.441,77.119,39.928,76.257,47.678,75.746z"/>
		<path class="st28" d="M30.571,119.201c4.564,1.844,10.108,2.873,16.42,2.873c16.554,0,25.353-7.918,25.353-18.6
			c0-8.779-5.688-13.436-18.796-22.736c-1.384-0.168-2.248-0.168-3.974-0.168c-1.549,0-10.857,0.344-18.103,2.758
			c-3.789,1.379-14.825,5.502-14.825,17.736c0,1.633,0.219,3.201,0.63,4.699C21.017,110.875,25.496,115.414,30.571,119.201z"/>
		<path class="st42" d="M30.571,119.201c4.564,1.844,10.108,2.873,16.42,2.873c16.554,0,25.353-7.918,25.353-18.6
			c0-8.779-5.688-13.436-18.796-22.736c-1.384-0.168-2.248-0.168-3.974-0.168c-1.549,0-10.857,0.344-18.103,2.758
			c-3.789,1.379-14.825,5.502-14.825,17.736c0,1.633,0.219,3.201,0.63,4.699C21.017,110.875,25.496,115.414,30.571,119.201z"/>
		<path class="st93" d="M25.271,22.178c0,11.535,6.722,30.658,21.543,30.658c4.313,0,8.973-2.068,11.732-4.818
			c3.962-3.967,4.312-9.475,4.312-12.58c0-9.047-3.956-21.754-11.649-27.969c-9.821,2.768-18.673,7.836-25.936,14.6
			C25.273,22.105,25.271,22.141,25.271,22.178z"/>
		<path class="st25" d="M68.415,5.084c-0.538,0-1.069,0.027-1.604,0.039C71.017,8.68,78.029,15.467,78.029,27.52
			c0,12.744-7.247,18.775-14.484,24.457c-2.236,2.236-4.822,4.654-4.822,8.439c0,3.793,2.586,5.855,4.475,7.408l6.209,4.82
			c7.584,6.371,14.483,12.238,14.483,24.111c0,14.23-12.112,28.58-35.153,31.861c6.196,2.023,12.806,3.133,19.678,3.133
			c34.979,0,63.334-28.357,63.334-63.332C131.749,33.438,103.394,5.084,68.415,5.084z"/>
		<path class="st56" d="M113.199,23.633c24.733,24.732,24.735,64.832,0,89.566c-24.732,24.732-64.834,24.734-89.567,0
			L113.199,23.633z"/>
		<path class="st2" d="M58.723,60.416c0.388,3.773,2.586,5.855,4.475,7.408l6.209,4.82c7.584,6.371,14.483,12.238,14.483,24.111
			c0,14.23-12.112,28.58-35.153,31.861c6.196,2.023,12.806,3.133,19.678,3.133c34.979,0,63.334-28.357,63.334-63.332
			c0-2.268-0.182-5.465-0.552-8.27c-0.426-3.236-1.048-5.939-1.048-5.939c-17.064-17.703-46.209-13.055-61.684-5.305
			C60.802,52.742,58.465,57.904,58.723,60.416z"/>
		<path class="st57" d="M83.891,96.755c0-11.873-6.899-17.74-14.483-24.111l-6.209-4.82c-1.889-1.553-4.475-3.615-4.475-7.408
			c0-3.785,2.586-6.203,4.822-8.439c7.237-5.682,14.484-11.713,14.484-24.457c0-12.053-7.012-18.84-11.218-22.396
			c-5.396,0.135-10.622,0.941-15.602,2.346c7.693,6.215,11.649,18.922,11.649,27.969c0,3.105-0.349,8.613-4.312,12.58
			c-2.76,2.75-7.42,4.818-11.732,4.818c-14.821,0-21.543-19.123-21.543-30.658c0-0.037,0.003-0.072,0.003-0.109
			c-5.485,5.109-10.058,11.178-13.459,17.941c3.637,9.725,12.958,17.654,26.902,17.654c1.724,0,3.612-0.176,5.522-0.344
			c-0.862,2.061-1.734,3.781-1.734,6.717c0,5.339,2.76,8.607,5.173,11.708c-7.75,0.512-22.237,1.373-32.931,7.914
			c-2.538,1.508-4.636,3.186-6.356,4.949c2.086,6.203,5.099,11.977,8.886,17.154c-0.412-1.498-0.63-3.066-0.63-4.699
			c0-12.234,11.037-16.357,14.825-17.736c7.246-2.414,16.554-2.758,18.103-2.758c1.726,0,2.589,0,3.974,0.168
			c13.108,9.301,18.796,13.957,18.796,22.736c0,10.682-8.799,18.6-25.353,18.6c-6.312,0-11.856-1.029-16.42-2.873
			c5.444,4.064,11.57,7.26,18.167,9.416C71.779,125.335,83.891,110.986,83.891,96.755z"/>
	</g>
	<g>
		<path class="st57" d="M14.747,83.66c-2.538,1.508-4.636,3.186-6.356,4.949c2.086,6.203,5.099,11.977,8.886,17.154
			c-0.412-1.498-0.63-3.066-0.63-4.699c0-12.234,11.037-16.357,14.825-17.736c6.308-2.102,14.174-2.633,17.128-2.736l-4.591-4.59
			C35.899,76.617,23.93,78.042,14.747,83.66z"/>
		<path class="st57" d="M71.892,10.211c-1.755-2.157-3.593-3.83-5.081-5.088c-3.952,0.1-7.811,0.562-11.55,1.352l10.183,10.184
			L71.892,10.211z"/>
		<path class="st57" d="M16.16,32.653c-1.606,2.343-3.06,4.8-4.346,7.356c1.355,3.622,3.5,6.994,6.378,9.801l7.563-7.563
			L16.16,32.653z"/>
	</g>
	<g>
		<polygon class="st58" points="51.209,7.469 51.209,7.469 51.209,7.469 		"/>
		<path class="st58" d="M22.699,24.611c0.049-0.051,0.097-0.102,0.146-0.152C22.796,24.51,22.748,24.561,22.699,24.611z"/>
		<path class="st58" d="M20.494,27.035c-0.039,0.043-0.077,0.088-0.115,0.132C20.417,27.123,20.456,27.078,20.494,27.035z"/>
		<path class="st45" d="M51.209,7.469"/>
		<g class="st16">
			<path d="M47.354,128.148c0.261,0.092,0.528,0.172,0.791,0.262c-0.259-0.092-0.52-0.182-0.779-0.273L47.354,128.148z"/>
			<path d="M48.737,128.617c0.008-0.002,0.016-0.004,0.024-0.004c-0.206-0.068-0.412-0.135-0.617-0.203
				C48.342,128.478,48.538,128.55,48.737,128.617z"/>
		</g>
	</g>
	<g class="st16">
		<path d="M47.678,75.746c-2.413-3.102-5.173-6.369-5.173-11.708c0-2.936,0.872-4.656,1.734-6.717
			c-1.911,0.168-3.799,0.344-5.522,0.344c-8.75,0-15.677-3.125-20.524-7.854l26.223,26.181C45.75,75.89,46.583,75.818,47.678,75.746
			z"/>
		<path d="M46.814,52.836c4.313,0,8.973-2.068,11.732-4.818c3.962-3.967,4.312-9.475,4.312-12.58
			c0-9.047-3.956-21.754-11.649-27.969c-16.041,4.267-25.936,14.6-25.936,14.6c0,0.037-0.003,0.072-0.003,0.109
			C25.271,33.713,31.993,52.836,46.814,52.836z"/>
		<path d="M72.344,103.474c0-8.779-5.688-13.436-18.796-22.736c-1.384-0.168-2.248-0.168-3.974-0.168
			c-1.549,0-10.857,0.344-18.103,2.758c-3.789,1.379-14.825,5.502-14.825,17.736c0,1.633,0.219,3.201,0.63,4.699
			c3.74,5.111,8.219,9.65,13.294,13.438c4.564,1.844,10.108,2.873,16.42,2.873C63.545,122.074,72.344,114.156,72.344,103.474z"/>
		<path d="M71.895,10.207l-0.003,0.004c3.207,3.939,6.137,9.52,6.137,17.309c0,12.744-7.247,18.775-14.484,24.457
			c-2.236,2.236-4.822,4.654-4.822,8.439c0,3.793,2.586,5.855,4.475,7.408l6.209,4.82c7.584,6.371,14.483,12.238,14.483,24.111
			c0,14.225-12.104,28.568-35.129,31.857c6.189,2.021,12.789,3.137,19.653,3.137c34.441,0,62.44-27.496,63.293-61.73L71.895,10.207z
			"/>
	</g>
</g>
</svg>
