<?xml version="1.0" encoding="utf-8"?>
<!-- Generator: Adobe Illustrator 16.0.0, SVG Export Plug-In . SVG Version: 6.00 Build 0)  -->
<!DOCTYPE svg PUBLIC "-//W3C//DTD SVG 1.1//EN" "http://www.w3.org/Graphics/SVG/1.1/DTD/svg11.dtd">
<svg version="1.1" id="Layer_1" xmlns="http://www.w3.org/2000/svg" xmlns:xlink="http://www.w3.org/1999/xlink" x="0px" y="0px"
	 width="136.833px" height="136.833px" viewBox="0 0 136.833 136.833" style="enable-background:new 0 0 136.833 136.833;"
	 xml:space="preserve">
<style type="text/css">
<![CDATA[
	.st0{fill:#467593;}
	.st1{fill:#10ABB6;}
	.st2{fill:#118241;}
	.st3{fill:#E14E42;}
	.st4{fill:#E17F2C;}
	.st5{fill:#E1E1E1;}
	.st6{fill:#13B3CA;}
	.st7{fill:#143E68;}
	.st8{fill:#16467C;}
	.st9{fill:#4A86C5;}
	.st10{fill:#E5772E;}
	.st11{fill:#E62D7E;}
	.st12{fill:#E74525;}
	.st13{fill:#4E4E4E;}
	.st14{fill:#4F286E;}
	.st15{fill:#B21F2F;}
	.st16{opacity:0.15;}
	.st17{fill:#1A8ABA;}
	.st18{fill:#B5CAD7;}
	.st19{fill:#1B468E;}
	.st20{fill:#1B88AD;}
	.st21{fill:#1B92D0;}
	.st22{fill:#1D839F;}
	.st23{fill:#1D8CB2;}
	.st24{fill:#1E3F77;}
	.st25{fill:#ED2A26;}
	.st26{fill:#ED7826;}
	.st27{fill:#ED802C;}
	.st28{fill:#EDC92C;}
	.st29{fill:#EDF0F3;}
	.st30{fill:#1F7F98;}
	.st31{fill:#518E42;}
	.st32{fill:#EF4923;}
	.st33{fill:#EF4E23;}
	.st34{fill:#527FA2;}
	.st35{fill:#539A44;}
	.st36{fill:#BA202D;}
	.st37{fill:#BA202E;}
	.st38{fill:#5880C0;}
	.st39{fill:#BC2B2A;}
	.st40{fill:#F09520;}
	.st41{fill:#24488E;}
	.st42{fill:#F3C716;}
	.st43{fill:#5BA545;}
	.st44{fill:#F68D2C;}
	.st45{fill:#284A9E;}
	.st46{fill:#F9A11C;}
	.st47{fill:#5F2C80;}
	.st48{fill:#C0C130;}
	.st49{fill:#C52232;}
	.st50{fill:#C6C5C5;}
	.st51{fill:#C7D02D;}
	.st52{fill:#C7D8E5;}
	.st53{fill:#C8C8C8;}
	.st54{fill:#2E4D72;}
	.st55{fill:#FDD14C;}
	.st56{opacity:0.1;}
	.st57{fill:#FFFFFF;}
	.st58{fill:none;}
	.st59{fill:#CA2128;}
	.st60{fill:#9B4A9B;}
	.st61{fill:#CBDB2B;}
	.st62{fill:#CC202D;}
	.st63{fill:#CC3731;}
	.st64{fill:#CCCBCB;}
	.st65{fill:#CD7028;}
	.st66{fill:#303A49;}
	.st67{fill:#306B81;}
	.st68{fill:#CE6028;}
	.st69{fill:#345387;}
	.st70{fill:#37759B;}
	.st71{fill:#377CA5;}
	.st72{fill:#01A961;}
	.st73{fill-rule:evenodd;clip-rule:evenodd;fill:#FFFFFF;}
	.st74{fill:#D1D1D1;}
	.st75{fill:#D23D28;}
	.st76{fill:#D42028;}
	.st77{fill:#D42428;}
	.st78{fill:#D4E5F6;}
	.st79{fill:#3A58A6;}
	.st80{fill:#3A5A98;}
	.st81{fill:#D56727;}
	.st82{fill:#D5D5D5;}
	.st83{fill:#3C485B;}
	.st84{fill:#3D80B2;}
	.st85{fill:#702C90;}
	.st86{fill:#A52728;}
	.st87{fill:#0BA0A0;}
	.st88{fill:#0CAEB1;}
	.st89{fill:#DB6D27;}
	.st90{fill:#DC4127;}
	.st91{fill:#A91E30;}
	.st92{fill:#0EA2A4;}
	.st93{fill:#4077B5;}
	.st94{fill:#407CA8;}
	.st95{fill:#0FB2BC;}
	.st96{fill:#416B82;}
	.st97{fill:#DF8326;}
	.st98{fill:#44546B;}
]]>
</style>
<g>
	<g>
		<g>
			<g>
				<circle class="st78" cx="68.292" cy="68.293" r="63.333"/>
			</g>
		</g>
	</g>
	<path class="st52" d="M113.326,23.758c24.732,24.732,24.732,64.832-0.002,89.566c-24.732,24.732-64.834,24.732-89.566,0
		L113.326,23.758z"/>
	<path class="st18" d="M96.9,36.979l-2.316,2.316l-3.816-3.816l-8.25,8.25l-5.5-5.5l-3.375,3.375l-0.875-0.875L68.4,45.096
		l0.875,0.875l-3.125,3.125l1.641,1.641l-20.133,8.884l-3.391-3.392l-7.477,1.008l-4.75,5.5l-1.266,6.984l0.438,0.436l-0.047,0.046
		l5.648,5.649l2.461,11.869l42.461,42.461c27.471-5.941,48.309-29.689,49.801-58.566L96.9,36.979z"/>
	<path id="reddit_2_" class="st13" d="M79.896,81.366c-0.389-0.252-0.84-0.404-1.316-0.404c-0.383,0-0.783,0.109-1.139,0.345l0,0
		c-3.357,2.005-7.307,3.103-11.229,3.103c-2.941,0-5.865-0.62-8.516-1.922l-0.012-0.008l-0.014-0.004
		c-0.398-0.164-0.854-0.512-1.35-0.842c-0.254-0.164-0.518-0.325-0.809-0.445c-0.289-0.123-0.609-0.209-0.953-0.209
		c-0.283,0-0.582,0.064-0.875,0.197c-0.016,0.006-0.029,0.012-0.045,0.018h0.002c-0.461,0.177-0.822,0.499-1.055,0.883
		c-0.242,0.394-0.361,0.852-0.361,1.309c0,0.412,0.096,0.824,0.299,1.199c0.191,0.354,0.486,0.664,0.871,0.872
		c3.787,2.556,8.246,3.711,12.723,3.708c4.035,0,8.094-0.936,11.709-2.635l0.02-0.013l0.018-0.009
		c0.479-0.283,1.111-0.535,1.707-0.904c0.295-0.188,0.584-0.405,0.832-0.689c0.248-0.281,0.447-0.627,0.559-1.039l0,0
		c0.047-0.182,0.07-0.359,0.07-0.534c0-0.337-0.082-0.655-0.219-0.942C80.609,81.972,80.281,81.618,79.896,81.366z M104.582,63.298
		v0.007c0.012,0.166,0.016,0.33,0.016,0.496c0,1.846-0.592,3.621-1.582,5.127c-0.92,1.408-2.193,2.589-3.656,3.388
		c0.094,0.735,0.148,1.476,0.148,2.214c-0.002,3.975-1.373,7.883-3.76,11.014v0.002h-0.006c-4.41,5.869-11.186,9.33-18.027,11.076
		h-0.002l-0.006,0.004c-3.646,0.885-7.41,1.338-11.17,1.338c-5.605,0-11.209-1.012-16.436-3.107l-0.002-0.006h-0.004
		c-5.42-2.23-10.584-5.783-13.752-10.985c-1.703-2.776-2.639-6.032-2.639-9.306c0-0.74,0.051-1.48,0.148-2.215
		c-1.426-0.803-2.662-1.941-3.578-3.302c-0.98-1.46-1.6-3.171-1.68-4.98v-0.007v-0.006v-0.016c0.002-2.533,1.102-4.934,2.813-6.701
		c1.711-1.77,4.045-2.926,6.551-2.926c0.035,0,0.068,0,0.105,0c0.26-0.018,0.527-0.029,0.793-0.029c1.258,0,2.52,0.205,3.717,0.664
		l0.006,0.004l0.008,0.002c1.023,0.432,2.037,0.951,2.943,1.67c0.293-0.153,0.613-0.326,0.975-0.463
		c5.488-3.251,11.867-4.505,18.086-4.866c0.053-3.08,0.432-6.304,1.934-9.126c1.252-2.344,3.422-4.171,6.01-4.803l0.008-0.005
		l0.014-0.001c0.984-0.191,1.979-0.278,2.965-0.278c2.627,0,5.223,0.622,7.652,1.593c1.074-1.623,2.611-2.891,4.412-3.6l0.018-0.01
		l0.016-0.007c1.057-0.329,2.174-0.522,3.295-0.522c1.182,0,2.373,0.217,3.49,0.715V35.34c0.002,0.004,0.002,0.004,0.002,0.004
		c0.008,0.003,0.016,0.008,0.023,0.008c1.6,0.616,2.953,1.756,3.914,3.172c0.961,1.422,1.527,3.125,1.527,4.877
		c0,0.322-0.018,0.646-0.057,0.971l-0.002,0.006c0,0.004,0,0.012-0.002,0.017c-0.188,2.263-1.334,4.249-2.957,5.665
		c-1.633,1.422-3.748,2.281-5.918,2.281c-0.348,0-0.699-0.02-1.049-0.066c-2.152-0.165-4.16-1.205-5.635-2.756
		c-1.479-1.546-2.434-3.613-2.434-5.844c0-0.109,0.012-0.219,0.016-0.326c-2.021-0.9-4.168-1.646-6.299-1.645
		c-0.309,0-0.619,0.017-0.926,0.049h-0.004c-1.596,0.152-3.08,1.158-3.801,2.605v0.002v0.006c-1.09,2.125-1.309,4.611-1.342,7.079
		c6.121,0.399,12.277,1.868,17.678,4.972h0.008l0.078,0.045c0.102,0.061,0.291,0.166,0.463,0.256
		c0.371-0.301,0.764-0.609,1.211-0.878c1.637-1.091,3.576-1.631,5.516-1.631c0.861,0,1.725,0.109,2.561,0.323h0.004l0.033,0.011
		c0.014,0.001,0.021,0.005,0.033,0.005v0.002c1.975,0.502,3.764,1.639,5.109,3.168c1.344,1.533,2.25,3.471,2.426,5.576V63.298z
		 M86.552,43.267c0,0.083,0.002,0.168,0.01,0.254v0.005v0.01c0.041,1.063,0.541,2.053,1.305,2.784
		c0.768,0.731,1.785,1.185,2.818,1.188h0.012h0.014c0.074,0.006,0.15,0.006,0.223,0.006c1.043,0.002,2.076-0.448,2.854-1.176
		c0.777-0.732,1.291-1.729,1.332-2.801l0.002-0.004v-0.008c0.008-0.081,0.01-0.16,0.01-0.244c0-1.102-0.516-2.154-1.324-2.934
		c-0.805-0.778-1.889-1.261-2.957-1.26c-0.346,0-0.686,0.049-1.02,0.152l-0.012,0.001l-0.01,0.005
		c-0.881,0.229-1.705,0.771-2.299,1.492C86.914,41.458,86.552,42.344,86.552,43.267z M41.373,59.672
		c-0.818-0.38-1.664-0.652-2.5-0.648c-0.141,0-0.281,0.009-0.422,0.023h-0.02l-0.02,0.003c-1.201,0.034-2.414,0.557-3.322,1.396
		c-0.91,0.836-1.514,1.965-1.559,3.209v0.014l-0.002,0.01c-0.008,0.1-0.012,0.199-0.012,0.297c0,0.768,0.236,1.51,0.635,2.184
		c0.295,0.502,0.684,0.962,1.121,1.361C36.677,64.448,38.869,61.84,41.373,59.672z M94.693,74.702c0-2.738-0.988-5.488-2.588-7.705
		c-3.191-4.438-8.139-7.332-13.285-8.945l-0.037-0.013c-0.988-0.304-1.986-0.571-2.992-0.802c-3.008-0.684-6.092-1.026-9.172-1.026
		c-4.139,0-8.275,0.612-12.238,1.835c-5.146,1.633-10.109,4.508-13.293,8.961v0.003c-1.613,2.224-2.559,4.983-2.559,7.733
		c0,1.01,0.129,2.021,0.395,3.008l0.004,0.001c0.578,2.209,1.713,4.182,3.178,5.901c1.467,1.721,3.264,3.191,5.156,4.389
		c0.418,0.258,0.84,0.506,1.27,0.748c5.494,3.066,11.82,4.412,18.102,4.412c1.063,0,2.131-0.037,3.186-0.113
		c6.326-0.523,12.678-2.391,17.813-6.205l0.002-0.004c1.633-1.209,3.146-2.67,4.346-4.335c1.201-1.663,2.082-3.524,2.473-5.544
		v-0.007l0.002-0.002C94.615,76.235,94.693,75.47,94.693,74.702z M99.683,63.803c0-0.666-0.152-1.327-0.484-1.943l-0.01-0.009
		l-0.002-0.009c-0.445-0.917-1.145-1.609-1.988-2.082c-0.842-0.475-1.828-0.717-2.818-0.717c-0.895,0-1.785,0.201-2.574,0.598
		c2.512,2.182,4.715,4.802,6.141,7.887c0.457-0.398,0.848-0.887,1.141-1.43C99.468,65.387,99.683,64.59,99.683,63.803z"/>
	<path class="st32" d="M82.933,69.124c0.197,0.501,0.287,1.02,0.287,1.533c0,1.037-0.359,2.043-0.959,2.863
		c-0.594,0.811-1.436,1.441-2.424,1.719h0.002c-0.01,0.004-0.018,0.004-0.023,0.006c-0.002,0-0.008,0.003-0.012,0.003
		c-0.465,0.159-0.939,0.233-1.41,0.233c-1.105,0-2.191-0.397-3.059-1.076c-0.861-0.677-1.512-1.648-1.717-2.801h-0.002
		c0-0.004,0-0.008-0.002-0.012c0-0.002,0-0.006-0.002-0.012h0.002c-0.064-0.297-0.096-0.594-0.096-0.887
		c0-0.998,0.338-1.956,0.9-2.748c0.559-0.786,1.348-1.412,2.27-1.733c0.002,0,0.006-0.002,0.006-0.002
		c0.004,0,0.004-0.003,0.008-0.003c0.523-0.195,1.074-0.29,1.619-0.29c0.992,0,1.971,0.3,2.795,0.851
		c0.814,0.541,1.477,1.336,1.809,2.322c0.002,0.007,0.002,0.014,0.006,0.019c0,0.007,0.002,0.01,0.006,0.015H82.933z"/>
	<path class="st32" d="M53.31,75.225c0.006,0,0.016,0.002,0.023,0.006c0.482,0.176,0.982,0.262,1.475,0.262
		c1.23,0,2.426-0.502,3.332-1.324c0.904-0.822,1.521-1.988,1.521-3.316c0-0.035,0-0.07,0-0.11c0.002-0.06,0.004-0.126,0.004-0.19
		c0-1.318-0.609-2.488-1.506-3.316c-0.898-0.828-2.092-1.334-3.326-1.334c-0.33,0-0.666,0.039-0.996,0.115
		c-0.004,0-0.008,0.002-0.012,0.002c0,0-0.004,0-0.006,0c-1.635,0.342-3.068,1.555-3.598,3.225l0,0v0.002
		c0,0.002-0.002,0.006-0.002,0.006c-0.152,0.457-0.223,0.93-0.223,1.396c0,1.023,0.338,2.019,0.92,2.839
		c0.578,0.807,1.396,1.439,2.377,1.734C53.3,75.219,53.304,75.221,53.31,75.225z"/>
</g>
</svg>
