<?xml version="1.0" encoding="utf-8"?>
<!-- Generator: Adobe Illustrator 16.0.0, SVG Export Plug-In . SVG Version: 6.00 Build 0)  -->
<!DOCTYPE svg PUBLIC "-//W3C//DTD SVG 1.1//EN" "http://www.w3.org/Graphics/SVG/1.1/DTD/svg11.dtd">
<svg version="1.1" id="Layer_1" xmlns="http://www.w3.org/2000/svg" xmlns:xlink="http://www.w3.org/1999/xlink" x="0px" y="0px"
	 width="136.833px" height="136.833px" viewBox="0 0 136.833 136.833" style="enable-background:new 0 0 136.833 136.833;"
	 xml:space="preserve">
<style type="text/css">
<![CDATA[
	.st0{fill:#467593;}
	.st1{fill:#10ABB6;}
	.st2{fill:#118241;}
	.st3{fill:#E14E42;}
	.st4{fill:#E17F2C;}
	.st5{fill:#E1E1E1;}
	.st6{fill:#13B3CA;}
	.st7{fill:#143E68;}
	.st8{fill:#16467C;}
	.st9{fill:#4A86C5;}
	.st10{fill:#E5772E;}
	.st11{fill:#E62D7E;}
	.st12{fill:#E74525;}
	.st13{fill:#4E4E4E;}
	.st14{fill:#4F286E;}
	.st15{fill:#B21F2F;}
	.st16{opacity:0.15;}
	.st17{fill:#1A8ABA;}
	.st18{fill:#B5CAD7;}
	.st19{fill:#1B468E;}
	.st20{fill:#1B88AD;}
	.st21{fill:#1B92D0;}
	.st22{fill:#1D839F;}
	.st23{fill:#1D8CB2;}
	.st24{fill:#1E3F77;}
	.st25{fill:#ED2A26;}
	.st26{fill:#ED7826;}
	.st27{fill:#ED802C;}
	.st28{fill:#EDC92C;}
	.st29{fill:#EDF0F3;}
	.st30{fill:#1F7F98;}
	.st31{fill:#518E42;}
	.st32{fill:#EF4923;}
	.st33{fill:#EF4E23;}
	.st34{fill:#527FA2;}
	.st35{fill:#539A44;}
	.st36{fill:#BA202D;}
	.st37{fill:#BA202E;}
	.st38{fill:#5880C0;}
	.st39{fill:#BC2B2A;}
	.st40{fill:#F09520;}
	.st41{fill:#24488E;}
	.st42{fill:#F3C716;}
	.st43{fill:#5BA545;}
	.st44{fill:#F68D2C;}
	.st45{fill:#284A9E;}
	.st46{fill:#F9A11C;}
	.st47{fill:#5F2C80;}
	.st48{fill:#C0C130;}
	.st49{fill:#C52232;}
	.st50{fill:#C6C5C5;}
	.st51{fill:#C7D02D;}
	.st52{fill:#C7D8E5;}
	.st53{fill:#C8C8C8;}
	.st54{fill:#2E4D72;}
	.st55{fill:#FDD14C;}
	.st56{opacity:0.1;}
	.st57{fill:#FFFFFF;}
	.st58{fill:none;}
	.st59{fill:#CA2128;}
	.st60{fill:#9B4A9B;}
	.st61{fill:#CBDB2B;}
	.st62{fill:#CC202D;}
	.st63{fill:#CC3731;}
	.st64{fill:#CCCBCB;}
	.st65{fill:#CD7028;}
	.st66{fill:#303A49;}
	.st67{fill:#306B81;}
	.st68{fill:#CE6028;}
	.st69{fill:#345387;}
	.st70{fill:#37759B;}
	.st71{fill:#377CA5;}
	.st72{fill:#01A961;}
	.st73{fill-rule:evenodd;clip-rule:evenodd;fill:#FFFFFF;}
	.st74{fill:#D1D1D1;}
	.st75{fill:#D23D28;}
	.st76{fill:#D42028;}
	.st77{fill:#D42428;}
	.st78{fill:#D4E5F6;}
	.st79{fill:#3A58A6;}
	.st80{fill:#3A5A98;}
	.st81{fill:#D56727;}
	.st82{fill:#D5D5D5;}
	.st83{fill:#3C485B;}
	.st84{fill:#3D80B2;}
	.st85{fill:#702C90;}
	.st86{fill:#A52728;}
	.st87{fill:#0BA0A0;}
	.st88{fill:#0CAEB1;}
	.st89{fill:#DB6D27;}
	.st90{fill:#DC4127;}
	.st91{fill:#A91E30;}
	.st92{fill:#0EA2A4;}
	.st93{fill:#4077B5;}
	.st94{fill:#407CA8;}
	.st95{fill:#0FB2BC;}
	.st96{fill:#416B82;}
	.st97{fill:#DF8326;}
	.st98{fill:#44546B;}
]]>
</style>
<g>
	<g>
		<g>
			<g>
				<circle class="st63" cx="68.416" cy="68.417" r="63.333"/>
			</g>
		</g>
	</g>
	<g>
		<path class="st39" d="M113.2,23.633c24.732,24.732,24.733,64.832-0.001,89.566c-24.733,24.732-64.834,24.732-89.566,0
			L113.2,23.633z"/>
		<g>
			<path class="st86" d="M131.219,76.489L94.992,40.262l-7.499,7.499l-8.001-8.001l-10.159,1.852l-3.507,1.482L54.5,40.946
				l-10.167,6.333l-1.95,19.26l15.833,15.833L48.5,84.446l-9.334,4.5l-2.45,14.926l27.743,27.744
				c1.311,0.08,2.627,0.135,3.957,0.135C100.656,131.75,127.251,107.653,131.219,76.489z"/>
		</g>
	</g>
	<g>
		<path class="st57" d="M68.067,43.037c0.586,0.362,1.239,0.89,1.967,1.585c0.699,0.725,1.382,1.617,2.053,2.67
			c0.642,0.998,1.211,2.172,1.708,3.531c0.407,1.357,0.611,2.943,0.611,4.754c-0.053,3.32-0.787,5.975-2.2,7.969
			c-0.688,0.965-1.422,1.855-2.196,2.672c-0.857,0.811-1.769,1.644-2.734,2.488c-0.556,0.573-1.064,1.221-1.535,1.947
			c-0.552,0.754-0.829,1.628-0.829,2.623c0,0.973,0.283,1.77,0.852,2.402c0.479,0.604,0.95,1.133,1.404,1.586l3.149,2.58
			c1.955,1.604,3.671,3.36,5.146,5.293c1.389,1.965,2.111,4.529,2.173,7.696c0,4.497-1.988,8.479-5.96,11.954
			c-4.114,3.594-10.059,5.447-17.824,5.566c-6.501-0.059-11.354-1.445-14.561-4.152c-3.232-2.533-4.853-5.559-4.853-9.084
			c0-1.715,0.524-3.633,1.582-5.741c1.018-2.105,2.867-3.96,5.546-5.557c3.003-1.714,6.161-2.86,9.471-3.435
			c3.276-0.479,5.995-0.753,8.162-0.811c-0.67-0.882-1.267-1.822-1.79-2.822c-0.611-0.972-0.914-2.143-0.914-3.504
			c0-0.819,0.115-1.506,0.348-2.049c0.203-0.58,0.394-1.105,0.566-1.594c-1.054,0.119-2.049,0.182-2.979,0.182
			c-4.942-0.063-8.708-1.617-11.299-4.663c-2.715-2.841-4.071-6.145-4.071-9.915c0-4.559,1.92-8.691,5.765-12.404
			c2.638-2.172,5.379-3.586,8.222-4.256c2.816-0.573,5.455-0.859,7.915-0.859h18.561l-5.731,3.347H68.067z M71.65,96.459
			c0-2.357-0.768-4.406-2.301-6.156c-1.628-1.659-4.168-3.695-7.626-6.113c-0.594-0.063-1.288-0.091-2.084-0.091
			c-0.473-0.058-1.685,0-3.634,0.181c-1.921,0.272-3.888,0.71-5.897,1.314c-0.474,0.18-1.136,0.453-1.993,0.814
			c-0.856,0.393-1.728,0.953-2.616,1.676c-0.857,0.754-1.582,1.689-2.17,2.809c-0.683,1.178-1.018,2.596-1.018,4.254
			c0,3.262,1.473,5.949,4.427,8.063c2.81,2.111,6.649,3.197,11.527,3.26c4.373-0.063,7.713-1.027,10.015-2.898
			C70.527,101.727,71.65,99.36,71.65,96.459z M58.713,69.255c2.443-0.09,4.479-0.97,6.106-2.634
			c0.787-1.179,1.291-2.389,1.515-3.629c0.135-1.24,0.204-2.281,0.204-3.131c0-3.656-0.937-7.35-2.808-11.065
			c-0.879-1.782-2.035-3.237-3.468-4.355c-1.463-1.054-3.145-1.616-5.045-1.677c-2.516,0.061-4.604,1.074-6.273,3.041
			c-1.406,2.055-2.079,4.354-2.016,6.895c0,3.355,0.98,6.845,2.944,10.477c0.952,1.693,2.177,3.129,3.685,4.309
			C55.06,68.667,56.777,69.255,58.713,69.255z"/>
		<polygon class="st57" points="104.665,49.828 94.928,49.828 94.928,40.086 90.209,40.086 90.209,49.828 80.472,49.828 
			80.472,54.545 90.209,54.545 90.209,64.283 94.928,64.283 94.928,54.545 104.665,54.545 		"/>
	</g>
</g>
</svg>
