<?xml version="1.0" encoding="utf-8"?>
<!-- Generator: Adobe Illustrator 16.0.0, SVG Export Plug-In . SVG Version: 6.00 Build 0)  -->
<!DOCTYPE svg PUBLIC "-//W3C//DTD SVG 1.1//EN" "http://www.w3.org/Graphics/SVG/1.1/DTD/svg11.dtd">
<svg version="1.1" id="Layer_1" xmlns="http://www.w3.org/2000/svg" xmlns:xlink="http://www.w3.org/1999/xlink" x="0px" y="0px"
	 width="136.833px" height="136.833px" viewBox="0 0 136.833 136.833" style="enable-background:new 0 0 136.833 136.833;"
	 xml:space="preserve">
<style type="text/css">
<![CDATA[
	.st0{fill:#467593;}
	.st1{fill:#10ABB6;}
	.st2{fill:#118241;}
	.st3{fill:#E14E42;}
	.st4{fill:#E17F2C;}
	.st5{fill:#E1E1E1;}
	.st6{fill:#13B3CA;}
	.st7{fill:#143E68;}
	.st8{fill:#16467C;}
	.st9{fill:#4A86C5;}
	.st10{fill:#E5772E;}
	.st11{fill:#E62D7E;}
	.st12{fill:#E74525;}
	.st13{fill:#4E4E4E;}
	.st14{fill:#4F286E;}
	.st15{fill:#B21F2F;}
	.st16{opacity:0.15;}
	.st17{fill:#1A8ABA;}
	.st18{fill:#B5CAD7;}
	.st19{fill:#1B468E;}
	.st20{fill:#1B88AD;}
	.st21{fill:#1B92D0;}
	.st22{fill:#1D839F;}
	.st23{fill:#1D8CB2;}
	.st24{fill:#1E3F77;}
	.st25{fill:#ED2A26;}
	.st26{fill:#ED7826;}
	.st27{fill:#ED802C;}
	.st28{fill:#EDC92C;}
	.st29{fill:#EDF0F3;}
	.st30{fill:#1F7F98;}
	.st31{fill:#518E42;}
	.st32{fill:#EF4923;}
	.st33{fill:#EF4E23;}
	.st34{fill:#527FA2;}
	.st35{fill:#539A44;}
	.st36{fill:#BA202D;}
	.st37{fill:#BA202E;}
	.st38{fill:#5880C0;}
	.st39{fill:#BC2B2A;}
	.st40{fill:#F09520;}
	.st41{fill:#24488E;}
	.st42{fill:#F3C716;}
	.st43{fill:#5BA545;}
	.st44{fill:#F68D2C;}
	.st45{fill:#284A9E;}
	.st46{fill:#F9A11C;}
	.st47{fill:#5F2C80;}
	.st48{fill:#C0C130;}
	.st49{fill:#C52232;}
	.st50{fill:#C6C5C5;}
	.st51{fill:#C7D02D;}
	.st52{fill:#C7D8E5;}
	.st53{fill:#C8C8C8;}
	.st54{fill:#2E4D72;}
	.st55{fill:#FDD14C;}
	.st56{opacity:0.1;}
	.st57{fill:#FFFFFF;}
	.st58{fill:none;}
	.st59{fill:#CA2128;}
	.st60{fill:#9B4A9B;}
	.st61{fill:#CBDB2B;}
	.st62{fill:#CC202D;}
	.st63{fill:#CC3731;}
	.st64{fill:#CCCBCB;}
	.st65{fill:#CD7028;}
	.st66{fill:#303A49;}
	.st67{fill:#306B81;}
	.st68{fill:#CE6028;}
	.st69{fill:#345387;}
	.st70{fill:#37759B;}
	.st71{fill:#377CA5;}
	.st72{fill:#01A961;}
	.st73{fill-rule:evenodd;clip-rule:evenodd;fill:#FFFFFF;}
	.st74{fill:#D1D1D1;}
	.st75{fill:#D23D28;}
	.st76{fill:#D42028;}
	.st77{fill:#D42428;}
	.st78{fill:#D4E5F6;}
	.st79{fill:#3A58A6;}
	.st80{fill:#3A5A98;}
	.st81{fill:#D56727;}
	.st82{fill:#D5D5D5;}
	.st83{fill:#3C485B;}
	.st84{fill:#3D80B2;}
	.st85{fill:#702C90;}
	.st86{fill:#A52728;}
	.st87{fill:#0BA0A0;}
	.st88{fill:#0CAEB1;}
	.st89{fill:#DB6D27;}
	.st90{fill:#DC4127;}
	.st91{fill:#A91E30;}
	.st92{fill:#0EA2A4;}
	.st93{fill:#4077B5;}
	.st94{fill:#407CA8;}
	.st95{fill:#0FB2BC;}
	.st96{fill:#416B82;}
	.st97{fill:#DF8326;}
	.st98{fill:#44546B;}
]]>
</style>
<g>
	<g>
		<g>
			<g>
				<circle class="st5" cx="68.264" cy="68.265" r="63.333"/>
			</g>
		</g>
		<g>
			<g>
				<path class="st74" d="M113.354,23.786c24.732,24.732,24.733,64.833-0.001,89.567c-24.733,24.732-64.834,24.732-89.566,0
					L113.354,23.786z"/>
			</g>
		</g>
		<g>
			<path class="st53" d="M131.525,71.103l-22.791-22.791l-6.662,3.786l-4.603,7.479L86.458,48.565l-4.699,3.324l-5.088,6.463
				l-9.844-9.844l-9.531,9.532l-9.312-9.311l-17.077-0.174l-2.002,2.004l9.688,9.688l16.859,43.18l26.638,26.639
				C109.523,123.953,130.247,100.062,131.525,71.103z"/>
		</g>
	</g>
	<path id="Wikipedia_2_" class="st13" d="M108.637,48.36c0,0-12.413,0-16.54,0l-1.182,0.203v1.588c0,0.188,0.563,0.344,0.72,0.46
		c0.149,0.125,0.554,0.194,0.721,0.194l1.498,0.075c1.7,0.079,2.218,0.448,2.879,1.071c0.651,0.644,0.757,1.737,0.25,3.274
		l-14.616,38.16l-0.558-0.166l-9.286-20.889c0.135-0.313,0.215-0.488,0.215-0.488l7.603-15.625c0.884-1.648,1.739-3.121,2.176-3.808
		c0.793-1.252,1.181-1.487,3.344-1.597c0.442,0,0.61-0.218,0.61-0.656v-1.58l-0.11-0.17c0,0-9.087-0.031-13.226,0l0.003,0.162v1.582
		c0,0.193-0.105,0.348,0.04,0.464c0.156,0.125,0.223,0.19,0.391,0.19l0.62,0.078c1.692,0.08,2.447,0.566,2.679,0.87
		c0.404,0.547,0.592,1.13-0.386,3.478l-5.854,12.816l-5.289-11.891c-1.734-3.797-2.164-4.973,0.451-5.194l0.703-0.161
		c0.503,0,0.424-0.2,0.424-0.578v-1.661l-0.053-0.138c0,0-9.689,0-14.109,0.003l-0.061,0.164v1.666c0,0.373,0.37,0.471,1.054,0.573
		c2.448,0.353,2.406,0.634,4.825,5.908c0.362,0.791,1.43,3.174,1.43,3.174l5.516,11.902c0,0,0.625,1.529,1.604,3.902l-8.014,17.566
		l-0.458-0.127c0,0-12.437-28.818-16.033-38.459c-0.379-0.994-0.544-1.737-0.544-2.195c0-0.979,0.804-1.511,2.412-1.581l2.444-0.088
		c0.5,0,1.319-0.209,1.319-0.646v-1.581l-0.736-0.164c0,0-15.236-0.019-18.313,0l-0.507,0.164v1.663c0,0.298,0.399,0.484,1.09,0.563
		c1.893,0.115,3.164,0.443,3.761,0.999c0.594,0.558,1.238,1.968,2.073,4.167c4.522,11.932,14.135,33.227,18.814,45.357
		c1.345,3.309,3.043,3.824,5.097-0.105c2.114-4.309,6.38-13.875,9.491-20.936c2.912,7.043,6.875,16.572,8.787,20.891
		c1.522,3.455,3.258,3.795,5.019,0.104c4.606-11.248,18.063-45.1,18.063-45.1c0.582-1.662,1.395-2.941,2.441-3.872
		c1.038-0.918,2.585-1.438,4.753-1.538c0.439,0,0.611-0.223,0.611-0.651v-1.588L108.637,48.36z"/>
</g>
</svg>
