<?xml version="1.0" encoding="utf-8"?>
<!-- Generator: Adobe Illustrator 16.0.0, SVG Export Plug-In . SVG Version: 6.00 Build 0)  -->
<!DOCTYPE svg PUBLIC "-//W3C//DTD SVG 1.1//EN" "http://www.w3.org/Graphics/SVG/1.1/DTD/svg11.dtd">
<svg version="1.1" id="Layer_1" xmlns="http://www.w3.org/2000/svg" xmlns:xlink="http://www.w3.org/1999/xlink" x="0px" y="0px"
	 width="136.833px" height="136.834px" viewBox="0 0 136.833 136.834" style="enable-background:new 0 0 136.833 136.834;"
	 xml:space="preserve">
<style type="text/css">
<![CDATA[
	.st0{fill:#467593;}
	.st1{fill:#10ABB6;}
	.st2{fill:#118241;}
	.st3{fill:#E14E42;}
	.st4{fill:#E17F2C;}
	.st5{fill:#E1E1E1;}
	.st6{fill:#13B3CA;}
	.st7{fill:#143E68;}
	.st8{fill:#16467C;}
	.st9{fill:#4A86C5;}
	.st10{fill:#E5772E;}
	.st11{fill:#E62D7E;}
	.st12{fill:#E74525;}
	.st13{fill:#4E4E4E;}
	.st14{fill:#4F286E;}
	.st15{fill:#B21F2F;}
	.st16{opacity:0.15;}
	.st17{fill:#1A8ABA;}
	.st18{fill:#B5CAD7;}
	.st19{fill:#1B468E;}
	.st20{fill:#1B88AD;}
	.st21{fill:#1B92D0;}
	.st22{fill:#1D839F;}
	.st23{fill:#1D8CB2;}
	.st24{fill:#1E3F77;}
	.st25{fill:#ED2A26;}
	.st26{fill:#ED7826;}
	.st27{fill:#ED802C;}
	.st28{fill:#EDC92C;}
	.st29{fill:#EDF0F3;}
	.st30{fill:#1F7F98;}
	.st31{fill:#518E42;}
	.st32{fill:#EF4923;}
	.st33{fill:#EF4E23;}
	.st34{fill:#527FA2;}
	.st35{fill:#539A44;}
	.st36{fill:#BA202D;}
	.st37{fill:#BA202E;}
	.st38{fill:#5880C0;}
	.st39{fill:#BC2B2A;}
	.st40{fill:#F09520;}
	.st41{fill:#24488E;}
	.st42{fill:#F3C716;}
	.st43{fill:#5BA545;}
	.st44{fill:#F68D2C;}
	.st45{fill:#284A9E;}
	.st46{fill:#F9A11C;}
	.st47{fill:#5F2C80;}
	.st48{fill:#C0C130;}
	.st49{fill:#C52232;}
	.st50{fill:#C6C5C5;}
	.st51{fill:#C7D02D;}
	.st52{fill:#C7D8E5;}
	.st53{fill:#C8C8C8;}
	.st54{fill:#2E4D72;}
	.st55{fill:#FDD14C;}
	.st56{opacity:0.1;}
	.st57{fill:#FFFFFF;}
	.st58{fill:none;}
	.st59{fill:#CA2128;}
	.st60{fill:#9B4A9B;}
	.st61{fill:#CBDB2B;}
	.st62{fill:#CC202D;}
	.st63{fill:#CC3731;}
	.st64{fill:#CCCBCB;}
	.st65{fill:#CD7028;}
	.st66{fill:#303A49;}
	.st67{fill:#306B81;}
	.st68{fill:#CE6028;}
	.st69{fill:#345387;}
	.st70{fill:#37759B;}
	.st71{fill:#377CA5;}
	.st72{fill:#01A961;}
	.st73{fill-rule:evenodd;clip-rule:evenodd;fill:#FFFFFF;}
	.st74{fill:#D1D1D1;}
	.st75{fill:#D23D28;}
	.st76{fill:#D42028;}
	.st77{fill:#D42428;}
	.st78{fill:#D4E5F6;}
	.st79{fill:#3A58A6;}
	.st80{fill:#3A5A98;}
	.st81{fill:#D56727;}
	.st82{fill:#D5D5D5;}
	.st83{fill:#3C485B;}
	.st84{fill:#3D80B2;}
	.st85{fill:#702C90;}
	.st86{fill:#A52728;}
	.st87{fill:#0BA0A0;}
	.st88{fill:#0CAEB1;}
	.st89{fill:#DB6D27;}
	.st90{fill:#DC4127;}
	.st91{fill:#A91E30;}
	.st92{fill:#0EA2A4;}
	.st93{fill:#4077B5;}
	.st94{fill:#407CA8;}
	.st95{fill:#0FB2BC;}
	.st96{fill:#416B82;}
	.st97{fill:#DF8326;}
	.st98{fill:#44546B;}
]]>
</style>
<g>
	<circle class="st19" cx="68.416" cy="68.417" r="63.333"/>
	<path class="st8" d="M113.199,23.632c24.733,24.734,24.735,64.833,0,89.568c-24.732,24.732-64.834,24.733-89.568,0L113.199,23.632z
		"/>
	<g>
		<path class="st7" d="M130.599,80.418L88.45,38.271L75.918,50.803l-9.176-9.177l-9.125,9.125l-7.375-7.375l-9.236,9.236
			l16.551,16.551l-5.93,5.931l-4.593-4.593L36.839,80.695l48.695,48.695C108.424,122.977,126.066,104.034,130.599,80.418z"/>
	</g>
	<path id="Myspace__x28_alt_x29__3_" class="st57" d="M81.307,57.426c-5.989,0-10.848-4.848-10.848-10.823
		c0-5.977,4.859-10.824,10.848-10.824s10.847,4.848,10.847,10.824C92.154,52.578,87.296,57.426,81.307,57.426L81.307,57.426z
		 M72.433,67.854c0-5.979-4.856-10.822-10.848-10.822c-5.992,0-10.847,4.844-10.847,10.822c0,0.244,0.02,0.482,0.036,0.723h-0.036
		v18.759h21.695V68.577h-0.037C72.412,68.337,72.433,68.099,72.433,67.854L72.433,67.854z M61.584,55.587
		c4.392,0,7.954-3.552,7.954-7.936c0-4.381-3.562-7.936-7.954-7.936c-4.391,0-7.954,3.555-7.954,7.936
		C53.63,52.035,57.193,55.587,61.584,55.587L61.584,55.587z M96.1,74.154c0-8.154-6.621-14.762-14.792-14.762
		c-8.171,0-14.792,6.607-14.792,14.762c0,0.33,0.027,0.656,0.049,0.98h-0.049v25.584H96.1V75.135h-0.05
		C96.073,74.811,96.1,74.484,96.1,74.154L96.1,74.154z M45.807,55.851c-4.905,0-8.875,3.963-8.875,8.855
		c0,0.198,0.015,0.395,0.029,0.592h-0.029v15.351h17.75V65.298h-0.029c0.013-0.197,0.029-0.394,0.029-0.592
		C54.681,59.813,50.708,55.851,45.807,55.851L45.807,55.851z M45.807,54.671c3.592,0,6.507-2.908,6.507-6.494
		s-2.915-6.493-6.507-6.493c-3.593,0-6.51,2.907-6.51,6.493S42.214,54.671,45.807,54.671L45.807,54.671z"/>
</g>
</svg>
