<?xml version="1.0" encoding="utf-8"?>
<!-- Generator: Adobe Illustrator 16.0.0, SVG Export Plug-In . SVG Version: 6.00 Build 0)  -->
<!DOCTYPE svg PUBLIC "-//W3C//DTD SVG 1.1//EN" "http://www.w3.org/Graphics/SVG/1.1/DTD/svg11.dtd">
<svg version="1.1" id="Layer_1" xmlns="http://www.w3.org/2000/svg" xmlns:xlink="http://www.w3.org/1999/xlink" x="0px" y="0px"
	 width="136.833px" height="136.833px" viewBox="0 0 136.833 136.833" style="enable-background:new 0 0 136.833 136.833;"
	 xml:space="preserve">
<style type="text/css">
<![CDATA[
	.st0{fill:#467593;}
	.st1{fill:#10ABB6;}
	.st2{fill:#118241;}
	.st3{fill:#E14E42;}
	.st4{fill:#E17F2C;}
	.st5{fill:#E1E1E1;}
	.st6{fill:#13B3CA;}
	.st7{fill:#143E68;}
	.st8{fill:#16467C;}
	.st9{fill:#4A86C5;}
	.st10{fill:#E5772E;}
	.st11{fill:#E62D7E;}
	.st12{fill:#E74525;}
	.st13{fill:#4E4E4E;}
	.st14{fill:#4F286E;}
	.st15{fill:#B21F2F;}
	.st16{opacity:0.15;}
	.st17{fill:#1A8ABA;}
	.st18{fill:#B5CAD7;}
	.st19{fill:#1B468E;}
	.st20{fill:#1B88AD;}
	.st21{fill:#1B92D0;}
	.st22{fill:#1D839F;}
	.st23{fill:#1D8CB2;}
	.st24{fill:#1E3F77;}
	.st25{fill:#ED2A26;}
	.st26{fill:#ED7826;}
	.st27{fill:#ED802C;}
	.st28{fill:#EDC92C;}
	.st29{fill:#EDF0F3;}
	.st30{fill:#1F7F98;}
	.st31{fill:#518E42;}
	.st32{fill:#EF4923;}
	.st33{fill:#EF4E23;}
	.st34{fill:#527FA2;}
	.st35{fill:#539A44;}
	.st36{fill:#BA202D;}
	.st37{fill:#BA202E;}
	.st38{fill:#5880C0;}
	.st39{fill:#BC2B2A;}
	.st40{fill:#F09520;}
	.st41{fill:#24488E;}
	.st42{fill:#F3C716;}
	.st43{fill:#5BA545;}
	.st44{fill:#F68D2C;}
	.st45{fill:#284A9E;}
	.st46{fill:#F9A11C;}
	.st47{fill:#5F2C80;}
	.st48{fill:#C0C130;}
	.st49{fill:#C52232;}
	.st50{fill:#C6C5C5;}
	.st51{fill:#C7D02D;}
	.st52{fill:#C7D8E5;}
	.st53{fill:#C8C8C8;}
	.st54{fill:#2E4D72;}
	.st55{fill:#FDD14C;}
	.st56{opacity:0.1;}
	.st57{fill:#FFFFFF;}
	.st58{fill:none;}
	.st59{fill:#CA2128;}
	.st60{fill:#9B4A9B;}
	.st61{fill:#CBDB2B;}
	.st62{fill:#CC202D;}
	.st63{fill:#CC3731;}
	.st64{fill:#CCCBCB;}
	.st65{fill:#CD7028;}
	.st66{fill:#303A49;}
	.st67{fill:#306B81;}
	.st68{fill:#CE6028;}
	.st69{fill:#345387;}
	.st70{fill:#37759B;}
	.st71{fill:#377CA5;}
	.st72{fill:#01A961;}
	.st73{fill-rule:evenodd;clip-rule:evenodd;fill:#FFFFFF;}
	.st74{fill:#D1D1D1;}
	.st75{fill:#D23D28;}
	.st76{fill:#D42028;}
	.st77{fill:#D42428;}
	.st78{fill:#D4E5F6;}
	.st79{fill:#3A58A6;}
	.st80{fill:#3A5A98;}
	.st81{fill:#D56727;}
	.st82{fill:#D5D5D5;}
	.st83{fill:#3C485B;}
	.st84{fill:#3D80B2;}
	.st85{fill:#702C90;}
	.st86{fill:#A52728;}
	.st87{fill:#0BA0A0;}
	.st88{fill:#0CAEB1;}
	.st89{fill:#DB6D27;}
	.st90{fill:#DC4127;}
	.st91{fill:#A91E30;}
	.st92{fill:#0EA2A4;}
	.st93{fill:#4077B5;}
	.st94{fill:#407CA8;}
	.st95{fill:#0FB2BC;}
	.st96{fill:#416B82;}
	.st97{fill:#DF8326;}
	.st98{fill:#44546B;}
]]>
</style>
<g>
	<g>
		<g>
			<g>
				<circle class="st59" cx="68.416" cy="68.331" r="63.333"/>
			</g>
		</g>
	</g>
	<path class="st36" d="M113.198,23.719c24.734,24.734,24.734,64.834,0,89.568c-24.732,24.732-64.834,24.733-89.568,0L113.198,23.719
		z"/>
	<g>
		<path class="st91" d="M130.642,80.09L93.544,42.993L88.3,48.237L59.456,36.391L34.788,61.058L47.8,88.736l-5.576,5.577
			l36.502,36.501C104.954,126.518,125.751,106.115,130.642,80.09z"/>
	</g>
	<path class="st57" d="M68.321,32.566c-20.004,0-36.225,16.216-36.225,36.222c0,14.833,8.92,27.576,21.684,33.178
		c-0.102-2.532-0.018-5.568,0.627-8.316c0.701-2.944,4.664-19.742,4.664-19.742s-1.16-2.311-1.16-5.729
		c0-5.365,3.115-9.375,6.992-9.375c3.289,0,4.883,2.473,4.883,5.435c0,3.313-2.115,8.268-3.197,12.854
		c-0.91,3.842,1.926,6.976,5.711,6.976c6.865,0,11.486-8.811,11.486-19.256c0-7.938-5.344-13.878-15.07-13.878
		c-10.986,0-17.832,8.191-17.832,17.342c0,3.157,0.932,5.383,2.389,7.107c0.672,0.792,0.764,1.107,0.516,2.018
		c-0.166,0.668-0.564,2.271-0.732,2.905c-0.244,0.923-0.984,1.246-1.814,0.907c-5.061-2.063-7.418-7.605-7.418-13.836
		c0-10.288,8.676-22.629,25.889-22.629c13.828,0,22.934,10.009,22.934,20.751c0,14.209-7.904,24.822-19.547,24.822
		c-3.914,0-7.592-2.114-8.848-4.512c0,0-2.105,8.345-2.549,9.958c-0.768,2.786-2.273,5.584-3.646,7.759
		c3.254,0.96,6.697,1.482,10.266,1.482c20,0,36.219-16.215,36.219-36.222C104.54,48.782,88.321,32.566,68.321,32.566z"/>
</g>
</svg>
