<?xml version="1.0" encoding="utf-8"?>
<!-- Generator: Adobe Illustrator 16.0.0, SVG Export Plug-In . SVG Version: 6.00 Build 0)  -->
<!DOCTYPE svg PUBLIC "-//W3C//DTD SVG 1.1//EN" "http://www.w3.org/Graphics/SVG/1.1/DTD/svg11.dtd">
<svg version="1.1" id="Layer_1" xmlns="http://www.w3.org/2000/svg" xmlns:xlink="http://www.w3.org/1999/xlink" x="0px" y="0px"
	 width="136.833px" height="136.834px" viewBox="0 0 136.833 136.834" style="enable-background:new 0 0 136.833 136.834;"
	 xml:space="preserve">
<style type="text/css">
<![CDATA[
	.st0{fill:#467593;}
	.st1{fill:#10ABB6;}
	.st2{fill:#118241;}
	.st3{fill:#E14E42;}
	.st4{fill:#E17F2C;}
	.st5{fill:#E1E1E1;}
	.st6{fill:#13B3CA;}
	.st7{fill:#143E68;}
	.st8{fill:#16467C;}
	.st9{fill:#4A86C5;}
	.st10{fill:#E5772E;}
	.st11{fill:#E62D7E;}
	.st12{fill:#E74525;}
	.st13{fill:#4E4E4E;}
	.st14{fill:#4F286E;}
	.st15{fill:#B21F2F;}
	.st16{opacity:0.15;}
	.st17{fill:#1A8ABA;}
	.st18{fill:#B5CAD7;}
	.st19{fill:#1B468E;}
	.st20{fill:#1B88AD;}
	.st21{fill:#1B92D0;}
	.st22{fill:#1D839F;}
	.st23{fill:#1D8CB2;}
	.st24{fill:#1E3F77;}
	.st25{fill:#ED2A26;}
	.st26{fill:#ED7826;}
	.st27{fill:#ED802C;}
	.st28{fill:#EDC92C;}
	.st29{fill:#EDF0F3;}
	.st30{fill:#1F7F98;}
	.st31{fill:#518E42;}
	.st32{fill:#EF4923;}
	.st33{fill:#EF4E23;}
	.st34{fill:#527FA2;}
	.st35{fill:#539A44;}
	.st36{fill:#BA202D;}
	.st37{fill:#BA202E;}
	.st38{fill:#5880C0;}
	.st39{fill:#BC2B2A;}
	.st40{fill:#F09520;}
	.st41{fill:#24488E;}
	.st42{fill:#F3C716;}
	.st43{fill:#5BA545;}
	.st44{fill:#F68D2C;}
	.st45{fill:#284A9E;}
	.st46{fill:#F9A11C;}
	.st47{fill:#5F2C80;}
	.st48{fill:#C0C130;}
	.st49{fill:#C52232;}
	.st50{fill:#C6C5C5;}
	.st51{fill:#C7D02D;}
	.st52{fill:#C7D8E5;}
	.st53{fill:#C8C8C8;}
	.st54{fill:#2E4D72;}
	.st55{fill:#FDD14C;}
	.st56{opacity:0.1;}
	.st57{fill:#FFFFFF;}
	.st58{fill:none;}
	.st59{fill:#CA2128;}
	.st60{fill:#9B4A9B;}
	.st61{fill:#CBDB2B;}
	.st62{fill:#CC202D;}
	.st63{fill:#CC3731;}
	.st64{fill:#CCCBCB;}
	.st65{fill:#CD7028;}
	.st66{fill:#303A49;}
	.st67{fill:#306B81;}
	.st68{fill:#CE6028;}
	.st69{fill:#345387;}
	.st70{fill:#37759B;}
	.st71{fill:#377CA5;}
	.st72{fill:#01A961;}
	.st73{fill-rule:evenodd;clip-rule:evenodd;fill:#FFFFFF;}
	.st74{fill:#D1D1D1;}
	.st75{fill:#D23D28;}
	.st76{fill:#D42028;}
	.st77{fill:#D42428;}
	.st78{fill:#D4E5F6;}
	.st79{fill:#3A58A6;}
	.st80{fill:#3A5A98;}
	.st81{fill:#D56727;}
	.st82{fill:#D5D5D5;}
	.st83{fill:#3C485B;}
	.st84{fill:#3D80B2;}
	.st85{fill:#702C90;}
	.st86{fill:#A52728;}
	.st87{fill:#0BA0A0;}
	.st88{fill:#0CAEB1;}
	.st89{fill:#DB6D27;}
	.st90{fill:#DC4127;}
	.st91{fill:#A91E30;}
	.st92{fill:#0EA2A4;}
	.st93{fill:#4077B5;}
	.st94{fill:#407CA8;}
	.st95{fill:#0FB2BC;}
	.st96{fill:#416B82;}
	.st97{fill:#DF8326;}
	.st98{fill:#44546B;}
]]>
</style>
<g>
	<circle class="st46" cx="68.416" cy="68.417" r="63.333"/>
	<path class="st40" d="M113.2,23.632c24.732,24.734,24.734,64.833,0,89.568c-24.732,24.732-64.834,24.732-89.568,0L113.2,23.632z"/>
	<g>
		<g>
			<path class="st46" d="M93.909,126.394c0.033-0.016,0.068-0.031,0.104-0.047l-0.102-0.102
				C93.911,126.294,93.909,126.345,93.909,126.394z"/>
			<path class="st97" d="M109.552,116.539c9.264-7.926,16.213-18.469,19.693-30.496l-21.561-21.392l-1.75,1.75L91.019,51.318
				l-10.371,10.37l3.381,3.38l-3.295,3.297L65.206,52.837l-0.012,7.258l-7.07-7.07l-0.012,7.656l-7.029-7.031l-0.047,11.954
				l-6.955-6.954l0.014,11.971l-7.117-7.117l-0.063,9.27l-6.938-6.938l-0.127,14.018l50.721,50.72
				c4.648-0.902,9.111-2.318,13.338-4.178c0-0.049,0.002-0.1,0.002-0.148l0.102,0.102c2.535-1.123,4.99-2.395,7.338-3.826
				c0.002-0.631,1.119-0.717,1.119-0.717c2.484-1.588,4.85-3.342,7.082-5.252C109.552,116.548,109.552,116.542,109.552,116.539z"/>
		</g>
	</g>
	<path id="SoundCloud_1_" class="st57" d="M26.622,72.811c0,2.839,1.293,5.378,3.33,7.091v-14.18
		C27.915,67.429,26.622,69.972,26.622,72.811 M33.474,63.858v17.903c0.834,0.232,1.711,0.36,2.615,0.36h0.908V63.542
		c-0.303-0.025-0.605-0.042-0.914-0.042C35.177,63.5,34.304,63.626,33.474,63.858 M41.255,65.02c-0.24-0.154-0.48-0.296-0.736-0.427
		v17.528h3.521V58.677C42.638,60.506,41.661,62.667,41.255,65.02 M47.563,55.38v26.741h3.521V53.646
		C49.827,54.07,48.644,54.66,47.563,55.38 M54.606,52.917v29.204h3.525V53.025c-0.723-0.107-1.467-0.163-2.223-0.163
		C55.468,52.862,55.034,52.882,54.606,52.917 M63.595,54.976c-1.15-0.682-2.389-1.219-3.703-1.577v28.723h5.283V52.859
		C64.597,53.523,64.067,54.234,63.595,54.976 M66.937,51.091v31.03h33.463v-0.041c7.045-0.451,10.223-4.821,10.223-10.155
		c0-5.633-4.258-10.197-9.99-10.197c-1.471,0-2.682,0.305-3.961,0.853c-0.916-8.942-8.504-15.926-17.846-15.926
		C74.257,46.655,70.103,48.328,66.937,51.091"/>
</g>
</svg>
