<?xml version="1.0" encoding="utf-8"?>
<!-- Generator: Adobe Illustrator 16.0.0, SVG Export Plug-In . SVG Version: 6.00 Build 0)  -->
<!DOCTYPE svg PUBLIC "-//W3C//DTD SVG 1.1//EN" "http://www.w3.org/Graphics/SVG/1.1/DTD/svg11.dtd">
<svg version="1.1" id="Layer_1" xmlns="http://www.w3.org/2000/svg" xmlns:xlink="http://www.w3.org/1999/xlink" x="0px" y="0px"
	 width="136.833px" height="136.833px" viewBox="0 0 136.833 136.833" style="enable-background:new 0 0 136.833 136.833;"
	 xml:space="preserve">
<style type="text/css">
<![CDATA[
	.st0{fill:#467593;}
	.st1{fill:#10ABB6;}
	.st2{fill:#118241;}
	.st3{fill:#E14E42;}
	.st4{fill:#E17F2C;}
	.st5{fill:#E1E1E1;}
	.st6{fill:#13B3CA;}
	.st7{fill:#143E68;}
	.st8{fill:#16467C;}
	.st9{fill:#4A86C5;}
	.st10{fill:#E5772E;}
	.st11{fill:#E62D7E;}
	.st12{fill:#E74525;}
	.st13{fill:#4E4E4E;}
	.st14{fill:#4F286E;}
	.st15{fill:#B21F2F;}
	.st16{opacity:0.15;}
	.st17{fill:#1A8ABA;}
	.st18{fill:#B5CAD7;}
	.st19{fill:#1B468E;}
	.st20{fill:#1B88AD;}
	.st21{fill:#1B92D0;}
	.st22{fill:#1D839F;}
	.st23{fill:#1D8CB2;}
	.st24{fill:#1E3F77;}
	.st25{fill:#ED2A26;}
	.st26{fill:#ED7826;}
	.st27{fill:#ED802C;}
	.st28{fill:#EDC92C;}
	.st29{fill:#EDF0F3;}
	.st30{fill:#1F7F98;}
	.st31{fill:#518E42;}
	.st32{fill:#EF4923;}
	.st33{fill:#EF4E23;}
	.st34{fill:#527FA2;}
	.st35{fill:#539A44;}
	.st36{fill:#BA202D;}
	.st37{fill:#BA202E;}
	.st38{fill:#5880C0;}
	.st39{fill:#BC2B2A;}
	.st40{fill:#F09520;}
	.st41{fill:#24488E;}
	.st42{fill:#F3C716;}
	.st43{fill:#5BA545;}
	.st44{fill:#F68D2C;}
	.st45{fill:#284A9E;}
	.st46{fill:#F9A11C;}
	.st47{fill:#5F2C80;}
	.st48{fill:#C0C130;}
	.st49{fill:#C52232;}
	.st50{fill:#C6C5C5;}
	.st51{fill:#C7D02D;}
	.st52{fill:#C7D8E5;}
	.st53{fill:#C8C8C8;}
	.st54{fill:#2E4D72;}
	.st55{fill:#FDD14C;}
	.st56{opacity:0.1;}
	.st57{fill:#FFFFFF;}
	.st58{fill:none;}
	.st59{fill:#CA2128;}
	.st60{fill:#9B4A9B;}
	.st61{fill:#CBDB2B;}
	.st62{fill:#CC202D;}
	.st63{fill:#CC3731;}
	.st64{fill:#CCCBCB;}
	.st65{fill:#CD7028;}
	.st66{fill:#303A49;}
	.st67{fill:#306B81;}
	.st68{fill:#CE6028;}
	.st69{fill:#345387;}
	.st70{fill:#37759B;}
	.st71{fill:#377CA5;}
	.st72{fill:#01A961;}
	.st73{fill-rule:evenodd;clip-rule:evenodd;fill:#FFFFFF;}
	.st74{fill:#D1D1D1;}
	.st75{fill:#D23D28;}
	.st76{fill:#D42028;}
	.st77{fill:#D42428;}
	.st78{fill:#D4E5F6;}
	.st79{fill:#3A58A6;}
	.st80{fill:#3A5A98;}
	.st81{fill:#D56727;}
	.st82{fill:#D5D5D5;}
	.st83{fill:#3C485B;}
	.st84{fill:#3D80B2;}
	.st85{fill:#702C90;}
	.st86{fill:#A52728;}
	.st87{fill:#0BA0A0;}
	.st88{fill:#0CAEB1;}
	.st89{fill:#DB6D27;}
	.st90{fill:#DC4127;}
	.st91{fill:#A91E30;}
	.st92{fill:#0EA2A4;}
	.st93{fill:#4077B5;}
	.st94{fill:#407CA8;}
	.st95{fill:#0FB2BC;}
	.st96{fill:#416B82;}
	.st97{fill:#DF8326;}
	.st98{fill:#44546B;}
]]>
</style>
<g>
	<g>
		<g>
			<g>
				<circle class="st27" cx="68.416" cy="68.417" r="63.333"/>
			</g>
		</g>
	</g>
	<g>
		<g>
			<g>
				<path class="st10" d="M113.199,23.633c24.732,24.733,24.734,64.832-0.001,89.567c-24.731,24.731-64.833,24.731-89.565-0.001
					L113.199,23.633z"/>
			</g>
		</g>
	</g>
	<g>
		<g>
			<g>
				<path class="st81" d="M124.676,97.49L82.37,55.184l-7.063,7.063L56.296,43.235l-8.678-3.298l-9.066,9.065L63.489,73.94
					l-2.057,2.057L46.995,61.559l-8.443,8.443l56.068,56.068C107.56,120.18,118.162,110.07,124.676,97.49z"/>
				<path class="st81" d="M40.89,96.565l34.761,34.761c6.466-0.735,12.633-2.445,18.357-4.979l-41.45-41.45L40.89,96.565z"/>
			</g>
		</g>
	</g>
	<path id="RSS_2_" class="st57" d="M52.607,85.083c1.502,1.499,2.416,3.532,2.421,5.798c-0.005,2.262-0.919,4.295-2.415,5.788
		l-0.006,0.004c-1.497,1.492-3.544,2.403-5.82,2.403c-2.273,0-4.314-0.914-5.813-2.407c-1.494-1.493-2.414-3.524-2.414-5.788
		c0-2.266,0.92-4.304,2.414-5.8v0.002c1.499-1.493,3.54-2.411,5.813-2.411C49.063,82.671,51.106,83.591,52.607,85.083z
		 M52.607,85.081v0.002c0.004,0,0.004,0,0.004,0L52.607,85.081z M40.974,96.672c0,0,0,0,0-0.004c-0.002,0-0.002,0-0.002,0
		L40.974,96.672z M38.566,58.248v11.836c7.726,0.004,15.034,3.039,20.502,8.516c5.468,5.459,8.49,12.777,8.502,20.531h0.004v0.021
		h11.884c-0.01-11.273-4.593-21.484-12.001-28.898C60.048,62.841,49.84,58.255,38.566,58.248z M38.587,37.173v11.83
		c27.618,0.019,50.068,22.504,50.088,50.148h11.863c-0.008-17.086-6.952-32.565-18.175-43.795
		C71.137,44.13,55.666,37.18,38.587,37.173z"/>
</g>
</svg>
