<?xml version="1.0" encoding="utf-8"?>
<!-- Generator: Adobe Illustrator 16.0.0, SVG Export Plug-In . SVG Version: 6.00 Build 0)  -->
<!DOCTYPE svg PUBLIC "-//W3C//DTD SVG 1.1//EN" "http://www.w3.org/Graphics/SVG/1.1/DTD/svg11.dtd">
<svg version="1.1" id="Layer_1" xmlns="http://www.w3.org/2000/svg" xmlns:xlink="http://www.w3.org/1999/xlink" x="0px" y="0px"
	 width="136.833px" height="136.834px" viewBox="0 0 136.833 136.834" style="enable-background:new 0 0 136.833 136.834;"
	 xml:space="preserve">
<style type="text/css">
<![CDATA[
	.st0{fill:#467593;}
	.st1{fill:#10ABB6;}
	.st2{fill:#118241;}
	.st3{fill:#E14E42;}
	.st4{fill:#E17F2C;}
	.st5{fill:#E1E1E1;}
	.st6{fill:#13B3CA;}
	.st7{fill:#143E68;}
	.st8{fill:#16467C;}
	.st9{fill:#4A86C5;}
	.st10{fill:#E5772E;}
	.st11{fill:#E62D7E;}
	.st12{fill:#E74525;}
	.st13{fill:#4E4E4E;}
	.st14{fill:#4F286E;}
	.st15{fill:#B21F2F;}
	.st16{opacity:0.15;}
	.st17{fill:#1A8ABA;}
	.st18{fill:#B5CAD7;}
	.st19{fill:#1B468E;}
	.st20{fill:#1B88AD;}
	.st21{fill:#1B92D0;}
	.st22{fill:#1D839F;}
	.st23{fill:#1D8CB2;}
	.st24{fill:#1E3F77;}
	.st25{fill:#ED2A26;}
	.st26{fill:#ED7826;}
	.st27{fill:#ED802C;}
	.st28{fill:#EDC92C;}
	.st29{fill:#EDF0F3;}
	.st30{fill:#1F7F98;}
	.st31{fill:#518E42;}
	.st32{fill:#EF4923;}
	.st33{fill:#EF4E23;}
	.st34{fill:#527FA2;}
	.st35{fill:#539A44;}
	.st36{fill:#BA202D;}
	.st37{fill:#BA202E;}
	.st38{fill:#5880C0;}
	.st39{fill:#BC2B2A;}
	.st40{fill:#F09520;}
	.st41{fill:#24488E;}
	.st42{fill:#F3C716;}
	.st43{fill:#5BA545;}
	.st44{fill:#F68D2C;}
	.st45{fill:#284A9E;}
	.st46{fill:#F9A11C;}
	.st47{fill:#5F2C80;}
	.st48{fill:#C0C130;}
	.st49{fill:#C52232;}
	.st50{fill:#C6C5C5;}
	.st51{fill:#C7D02D;}
	.st52{fill:#C7D8E5;}
	.st53{fill:#C8C8C8;}
	.st54{fill:#2E4D72;}
	.st55{fill:#FDD14C;}
	.st56{opacity:0.1;}
	.st57{fill:#FFFFFF;}
	.st58{fill:none;}
	.st59{fill:#CA2128;}
	.st60{fill:#9B4A9B;}
	.st61{fill:#CBDB2B;}
	.st62{fill:#CC202D;}
	.st63{fill:#CC3731;}
	.st64{fill:#CCCBCB;}
	.st65{fill:#CD7028;}
	.st66{fill:#303A49;}
	.st67{fill:#306B81;}
	.st68{fill:#CE6028;}
	.st69{fill:#345387;}
	.st70{fill:#37759B;}
	.st71{fill:#377CA5;}
	.st72{fill:#01A961;}
	.st73{fill-rule:evenodd;clip-rule:evenodd;fill:#FFFFFF;}
	.st74{fill:#D1D1D1;}
	.st75{fill:#D23D28;}
	.st76{fill:#D42028;}
	.st77{fill:#D42428;}
	.st78{fill:#D4E5F6;}
	.st79{fill:#3A58A6;}
	.st80{fill:#3A5A98;}
	.st81{fill:#D56727;}
	.st82{fill:#D5D5D5;}
	.st83{fill:#3C485B;}
	.st84{fill:#3D80B2;}
	.st85{fill:#702C90;}
	.st86{fill:#A52728;}
	.st87{fill:#0BA0A0;}
	.st88{fill:#0CAEB1;}
	.st89{fill:#DB6D27;}
	.st90{fill:#DC4127;}
	.st91{fill:#A91E30;}
	.st92{fill:#0EA2A4;}
	.st93{fill:#4077B5;}
	.st94{fill:#407CA8;}
	.st95{fill:#0FB2BC;}
	.st96{fill:#416B82;}
	.st97{fill:#DF8326;}
	.st98{fill:#44546B;}
]]>
</style>
<g>
	<g>
		<g>
			<g>
				<circle class="st21" cx="68.416" cy="68.418" r="63.333"/>
			</g>
		</g>
	</g>
	<g>
		<g>
			<path class="st17" d="M113.2,23.379c24.732,24.732,24.733,64.832-0.001,89.566c-24.733,24.733-64.834,24.733-89.566,0.001
				L113.2,23.379z"/>
		</g>
		<g>
			<path class="st20" d="M129.999,83.189L92.034,45.225l-7.526,7.526L65.916,38.162L36.791,67.287l12.882,20.299l-5.027,5.027
				l37.604,37.604C105.803,124.967,124.4,106.609,129.999,83.189z"/>
		</g>
		<g>
			<path class="st22" d="M125.502,95.878L71.518,41.893l-8.769,2.27l-11.333,5.333l-4.751,15.417l-0.31,13.143l48.094,48.094
				C108.019,120.02,119.05,109.266,125.502,95.878z"/>
		</g>
	</g>
	<path id="Skype_2_" class="st57" d="M101.835,74.686c0.269-1.699,0.41-3.438,0.41-5.213c0-18.449-14.956-33.405-33.406-33.405
		c-1.771,0-3.514,0.146-5.212,0.41c-3.077-1.901-6.708-3.003-10.6-3.003c-11.148,0-20.187,9.035-20.187,20.185
		c0,3.891,1.103,7.519,3.005,10.603c-0.263,1.702-0.408,3.435-0.408,5.211c0,18.449,14.956,33.4,33.401,33.4
		c1.772,0,3.516-0.136,5.214-0.404c3.08,1.9,6.709,3.006,10.601,3.006c11.15,0,20.188-9.04,20.188-20.189
		C104.841,81.395,103.739,77.766,101.835,74.686z M84.699,84.664c-1.413,2.035-3.488,3.625-6.202,4.768
		c-2.718,1.145-5.93,1.715-9.639,1.715c-4.447,0-8.129-0.777-11.034-2.348c-2.06-1.125-3.734-2.635-5.023-4.517
		c-1.29-1.884-1.944-3.728-1.944-5.526c0-1.061,0.404-1.984,1.192-2.735c0.796-0.757,1.821-1.138,3.03-1.138
		c0.991,0,1.842,0.299,2.535,0.891c0.688,0.592,1.265,1.45,1.737,2.584c0.565,1.314,1.18,2.414,1.834,3.289
		c0.649,0.866,1.563,1.589,2.748,2.155c1.172,0.567,2.729,0.851,4.68,0.851c2.669,0,4.826-0.576,6.477-1.717
		c1.659-1.148,2.457-2.547,2.457-4.236c0-1.348-0.43-2.42-1.311-3.254c-0.889-0.844-2.037-1.489-3.463-1.938
		c-1.43-0.453-3.351-0.935-5.758-1.441c-3.231-0.705-5.936-1.527-8.124-2.47c-2.192-0.946-3.938-2.24-5.231-3.874
		c-1.296-1.65-1.943-3.701-1.943-6.132c0-2.317,0.682-4.39,2.049-6.192c1.366-1.807,3.342-3.191,5.918-4.156
		c2.567-0.964,5.59-1.445,9.052-1.445c2.769,0,5.163,0.32,7.191,0.959c2.022,0.641,3.707,1.488,5.055,2.553
		c1.34,1.06,2.324,2.18,2.948,3.354c0.623,1.179,0.938,2.328,0.938,3.45c0,1.044-0.404,1.99-1.192,2.821
		c-0.788,0.83-1.796,1.254-2.974,1.25c-1.062,0-1.895-0.244-2.472-0.764c-0.563-0.5-1.153-1.299-1.792-2.412
		c-0.808-1.554-1.775-2.762-2.9-3.628c-1.095-0.849-2.901-1.292-5.416-1.286c-2.326,0-4.188,0.475-5.593,1.404
		c-1.413,0.945-2.09,2.041-2.093,3.326c0.003,0.805,0.233,1.482,0.699,2.063c0.473,0.586,1.13,1.093,1.976,1.521
		c0.846,0.434,1.706,0.77,2.571,1.012c0.874,0.247,2.324,0.605,4.342,1.08c2.529,0.545,4.825,1.154,6.887,1.818
		c2.058,0.668,3.813,1.472,5.265,2.432c1.463,0.955,2.606,2.174,3.421,3.646c0.821,1.474,1.23,3.274,1.23,5.394
		C86.826,80.34,86.115,82.633,84.699,84.664z"/>
</g>
</svg>
