<?xml version="1.0" encoding="utf-8"?>
<!-- Generator: Adobe Illustrator 16.0.0, SVG Export Plug-In . SVG Version: 6.00 Build 0)  -->
<!DOCTYPE svg PUBLIC "-//W3C//DTD SVG 1.1//EN" "http://www.w3.org/Graphics/SVG/1.1/DTD/svg11.dtd">
<svg version="1.1" id="Layer_1" xmlns="http://www.w3.org/2000/svg" xmlns:xlink="http://www.w3.org/1999/xlink" x="0px" y="0px"
	 width="136.833px" height="136.834px" viewBox="0 0 136.833 136.834" style="enable-background:new 0 0 136.833 136.834;"
	 xml:space="preserve">
<style type="text/css">
<![CDATA[
	.st0{fill:#467593;}
	.st1{fill:#10ABB6;}
	.st2{fill:#118241;}
	.st3{fill:#E14E42;}
	.st4{fill:#E17F2C;}
	.st5{fill:#E1E1E1;}
	.st6{fill:#13B3CA;}
	.st7{fill:#143E68;}
	.st8{fill:#16467C;}
	.st9{fill:#4A86C5;}
	.st10{fill:#E5772E;}
	.st11{fill:#E62D7E;}
	.st12{fill:#E74525;}
	.st13{fill:#4E4E4E;}
	.st14{fill:#4F286E;}
	.st15{fill:#B21F2F;}
	.st16{opacity:0.15;}
	.st17{fill:#1A8ABA;}
	.st18{fill:#B5CAD7;}
	.st19{fill:#1B468E;}
	.st20{fill:#1B88AD;}
	.st21{fill:#1B92D0;}
	.st22{fill:#1D839F;}
	.st23{fill:#1D8CB2;}
	.st24{fill:#1E3F77;}
	.st25{fill:#ED2A26;}
	.st26{fill:#ED7826;}
	.st27{fill:#ED802C;}
	.st28{fill:#EDC92C;}
	.st29{fill:#EDF0F3;}
	.st30{fill:#1F7F98;}
	.st31{fill:#518E42;}
	.st32{fill:#EF4923;}
	.st33{fill:#EF4E23;}
	.st34{fill:#527FA2;}
	.st35{fill:#539A44;}
	.st36{fill:#BA202D;}
	.st37{fill:#BA202E;}
	.st38{fill:#5880C0;}
	.st39{fill:#BC2B2A;}
	.st40{fill:#F09520;}
	.st41{fill:#24488E;}
	.st42{fill:#F3C716;}
	.st43{fill:#5BA545;}
	.st44{fill:#F68D2C;}
	.st45{fill:#284A9E;}
	.st46{fill:#F9A11C;}
	.st47{fill:#5F2C80;}
	.st48{fill:#C0C130;}
	.st49{fill:#C52232;}
	.st50{fill:#C6C5C5;}
	.st51{fill:#C7D02D;}
	.st52{fill:#C7D8E5;}
	.st53{fill:#C8C8C8;}
	.st54{fill:#2E4D72;}
	.st55{fill:#FDD14C;}
	.st56{opacity:0.1;}
	.st57{fill:#FFFFFF;}
	.st58{fill:none;}
	.st59{fill:#CA2128;}
	.st60{fill:#9B4A9B;}
	.st61{fill:#CBDB2B;}
	.st62{fill:#CC202D;}
	.st63{fill:#CC3731;}
	.st64{fill:#CCCBCB;}
	.st65{fill:#CD7028;}
	.st66{fill:#303A49;}
	.st67{fill:#306B81;}
	.st68{fill:#CE6028;}
	.st69{fill:#345387;}
	.st70{fill:#37759B;}
	.st71{fill:#377CA5;}
	.st72{fill:#01A961;}
	.st73{fill-rule:evenodd;clip-rule:evenodd;fill:#FFFFFF;}
	.st74{fill:#D1D1D1;}
	.st75{fill:#D23D28;}
	.st76{fill:#D42028;}
	.st77{fill:#D42428;}
	.st78{fill:#D4E5F6;}
	.st79{fill:#3A58A6;}
	.st80{fill:#3A5A98;}
	.st81{fill:#D56727;}
	.st82{fill:#D5D5D5;}
	.st83{fill:#3C485B;}
	.st84{fill:#3D80B2;}
	.st85{fill:#702C90;}
	.st86{fill:#A52728;}
	.st87{fill:#0BA0A0;}
	.st88{fill:#0CAEB1;}
	.st89{fill:#DB6D27;}
	.st90{fill:#DC4127;}
	.st91{fill:#A91E30;}
	.st92{fill:#0EA2A4;}
	.st93{fill:#4077B5;}
	.st94{fill:#407CA8;}
	.st95{fill:#0FB2BC;}
	.st96{fill:#416B82;}
	.st97{fill:#DF8326;}
	.st98{fill:#44546B;}
]]>
</style>
<g>
	<circle class="st5" cx="68.417" cy="68.417" r="63.333"/>
	<path class="st82" d="M113.2,23.632c24.732,24.734,24.734,64.834,0,89.568c-24.732,24.732-64.835,24.733-89.568,0L113.2,23.632z"/>
	<path class="st64" d="M131.75,68.417c0-2.294-0.129-4.558-0.366-6.789l-25.114-25.113l0.018,4.282L88.807,23.317l-5.586,5.586
		L50.35,22.44l53.299,53.302l-2.67,2.915l-36.84-36.84L57.5,45.804l-2.86,1.348L19.265,82.526L35.848,99.11l-4.75,4.75l27.05,27.05
		c3.343,0.545,6.771,0.841,10.268,0.841C103.394,131.751,131.75,103.394,131.75,68.417z"/>
	<g>
		<path class="st50" d="M131.75,68.417c0-2.337-0.136-4.641-0.382-6.912l-27.472-27.471l-9.542,9.542l21.25,21.25l-21.5,21.5
			l6.135,6.136L73.6,119.101l-14.813-14.813l-11.49,11.49l15.729,15.729c1.778,0.149,3.572,0.244,5.39,0.244
			C103.394,131.751,131.75,103.394,131.75,68.417z"/>
	</g>
	<g>
		<path class="st3" d="M88.758,23.448c-6.587-2.998-13.592-4.537-20.822-4.537c-6.017,0-11.939,1.162-17.634,3.301
			c1.335,1.213,36.737,33.408,38.456,34.978C88.758,54.87,88.758,24.16,88.758,23.448z"/>
		<path class="st55" d="M94.086,26.348c0,2.013,0,58.75,0,59.826c1.037,0,20.687,0,21.491,0c1.878-5.386,2.86-10.991,2.86-16.657
			C118.438,51.93,109.107,35.512,94.086,26.348z"/>
		<path class="st72" d="M47.25,91.507c1.085,0,64.225,0,66.053,0c-7.739,16-23.313,26.775-40.759,28.404h-9.259
			c-5.532-0.517-10.902-1.948-16.035-4.254C47.25,114.932,47.25,92.557,47.25,91.507z"/>
		<path class="st38" d="M41.945,112.736c0-1.977,0-41.181,0-43.512c-1.686,1.539-20.285,18.477-20.866,19.004
			C25.126,98.398,32.516,107.027,41.945,112.736z"/>
		<g id="Picasa">
			<path class="st60" d="M44.93,24.524c-16.958,8.719-27.492,25.912-27.492,44.992c0,4.345,0.655,8.763,1.837,13.144
				c1.372-1.249,43.89-39.953,44.764-40.756C63.184,41.129,45.502,25.046,44.93,24.524z"/>
		</g>
	</g>
</g>
</svg>
