<?xml version="1.0" encoding="utf-8"?>
<!-- Generator: Adobe Illustrator 16.0.0, SVG Export Plug-In . SVG Version: 6.00 Build 0)  -->
<!DOCTYPE svg PUBLIC "-//W3C//DTD SVG 1.1//EN" "http://www.w3.org/Graphics/SVG/1.1/DTD/svg11.dtd">
<svg version="1.1" id="Layer_1" xmlns="http://www.w3.org/2000/svg" xmlns:xlink="http://www.w3.org/1999/xlink" x="0px" y="0px"
	 width="136.833px" height="136.833px" viewBox="0 0 136.833 136.833" style="enable-background:new 0 0 136.833 136.833;"
	 xml:space="preserve">
<style type="text/css">
<![CDATA[
	.st0{fill:#467593;}
	.st1{fill:#10ABB6;}
	.st2{fill:#118241;}
	.st3{fill:#E14E42;}
	.st4{fill:#E17F2C;}
	.st5{fill:#E1E1E1;}
	.st6{fill:#13B3CA;}
	.st7{fill:#143E68;}
	.st8{fill:#16467C;}
	.st9{fill:#4A86C5;}
	.st10{fill:#E5772E;}
	.st11{fill:#E62D7E;}
	.st12{fill:#E74525;}
	.st13{fill:#4E4E4E;}
	.st14{fill:#4F286E;}
	.st15{fill:#B21F2F;}
	.st16{opacity:0.15;}
	.st17{fill:#1A8ABA;}
	.st18{fill:#B5CAD7;}
	.st19{fill:#1B468E;}
	.st20{fill:#1B88AD;}
	.st21{fill:#1B92D0;}
	.st22{fill:#1D839F;}
	.st23{fill:#1D8CB2;}
	.st24{fill:#1E3F77;}
	.st25{fill:#ED2A26;}
	.st26{fill:#ED7826;}
	.st27{fill:#ED802C;}
	.st28{fill:#EDC92C;}
	.st29{fill:#EDF0F3;}
	.st30{fill:#1F7F98;}
	.st31{fill:#518E42;}
	.st32{fill:#EF4923;}
	.st33{fill:#EF4E23;}
	.st34{fill:#527FA2;}
	.st35{fill:#539A44;}
	.st36{fill:#BA202D;}
	.st37{fill:#BA202E;}
	.st38{fill:#5880C0;}
	.st39{fill:#BC2B2A;}
	.st40{fill:#F09520;}
	.st41{fill:#24488E;}
	.st42{fill:#F3C716;}
	.st43{fill:#5BA545;}
	.st44{fill:#F68D2C;}
	.st45{fill:#284A9E;}
	.st46{fill:#F9A11C;}
	.st47{fill:#5F2C80;}
	.st48{fill:#C0C130;}
	.st49{fill:#C52232;}
	.st50{fill:#C6C5C5;}
	.st51{fill:#C7D02D;}
	.st52{fill:#C7D8E5;}
	.st53{fill:#C8C8C8;}
	.st54{fill:#2E4D72;}
	.st55{fill:#FDD14C;}
	.st56{opacity:0.1;}
	.st57{fill:#FFFFFF;}
	.st58{fill:none;}
	.st59{fill:#CA2128;}
	.st60{fill:#9B4A9B;}
	.st61{fill:#CBDB2B;}
	.st62{fill:#CC202D;}
	.st63{fill:#CC3731;}
	.st64{fill:#CCCBCB;}
	.st65{fill:#CD7028;}
	.st66{fill:#303A49;}
	.st67{fill:#306B81;}
	.st68{fill:#CE6028;}
	.st69{fill:#345387;}
	.st70{fill:#37759B;}
	.st71{fill:#377CA5;}
	.st72{fill:#01A961;}
	.st73{fill-rule:evenodd;clip-rule:evenodd;fill:#FFFFFF;}
	.st74{fill:#D1D1D1;}
	.st75{fill:#D23D28;}
	.st76{fill:#D42028;}
	.st77{fill:#D42428;}
	.st78{fill:#D4E5F6;}
	.st79{fill:#3A58A6;}
	.st80{fill:#3A5A98;}
	.st81{fill:#D56727;}
	.st82{fill:#D5D5D5;}
	.st83{fill:#3C485B;}
	.st84{fill:#3D80B2;}
	.st85{fill:#702C90;}
	.st86{fill:#A52728;}
	.st87{fill:#0BA0A0;}
	.st88{fill:#0CAEB1;}
	.st89{fill:#DB6D27;}
	.st90{fill:#DC4127;}
	.st91{fill:#A91E30;}
	.st92{fill:#0EA2A4;}
	.st93{fill:#4077B5;}
	.st94{fill:#407CA8;}
	.st95{fill:#0FB2BC;}
	.st96{fill:#416B82;}
	.st97{fill:#DF8326;}
	.st98{fill:#44546B;}
]]>
</style>
<g>
	<g>
		<g>
			<g>
				<circle class="st98" cx="68.416" cy="68.417" r="63.333"/>
			</g>
		</g>
	</g>
	<path class="st83" d="M113.198,23.631c24.734,24.734,24.734,64.834,0,89.568c-24.732,24.732-64.834,24.733-89.568,0L113.198,23.631
		z"/>
	<g>
		<path class="st66" d="M128.06,89.738L70.142,31.82L46.808,55.155l2.502,2.504l-5.219,5.083l24.498,24.496l-13.115,13.25
			l29.158,29.158C104.843,124.307,121.091,109.231,128.06,89.738z"/>
	</g>
	<path class="st29" d="M70.243,31.786v19.121H88.19v11.879H70.243v19.403c0,4.385,0.229,7.199,0.691,8.444
		c0.467,1.242,1.324,2.236,2.596,2.983c1.676,1.006,3.584,1.51,5.742,1.51c3.83,0,7.639-1.253,11.426-3.74v11.932
		c-3.23,1.526-6.16,2.594-8.781,3.208c-2.617,0.612-5.453,0.918-8.5,0.918c-3.457,0-6.51-0.435-9.17-1.312
		c-2.66-0.874-4.926-2.12-6.803-3.732c-1.877-1.618-3.178-3.339-3.904-5.163c-0.723-1.814-1.084-4.453-1.084-7.912V62.786h-8.365
		v-10.71c2.975-0.961,5.525-2.347,7.635-4.146c2.125-1.806,3.824-3.971,5.104-6.499c1.283-2.525,2.166-5.739,2.65-9.645H70.243z"/>
</g>
</svg>
