<?xml version="1.0" encoding="utf-8"?>
<!-- Generator: Adobe Illustrator 16.0.0, SVG Export Plug-In . SVG Version: 6.00 Build 0)  -->
<!DOCTYPE svg PUBLIC "-//W3C//DTD SVG 1.1//EN" "http://www.w3.org/Graphics/SVG/1.1/DTD/svg11.dtd">
<svg version="1.1" id="Layer_1" xmlns="http://www.w3.org/2000/svg" xmlns:xlink="http://www.w3.org/1999/xlink" x="0px" y="0px"
	 width="136.833px" height="136.834px" viewBox="0 0 136.833 136.834" style="enable-background:new 0 0 136.833 136.834;"
	 xml:space="preserve">
<style type="text/css">
<![CDATA[
	.st0{fill:#467593;}
	.st1{fill:#10ABB6;}
	.st2{fill:#118241;}
	.st3{fill:#E14E42;}
	.st4{fill:#E17F2C;}
	.st5{fill:#E1E1E1;}
	.st6{fill:#13B3CA;}
	.st7{fill:#143E68;}
	.st8{fill:#16467C;}
	.st9{fill:#4A86C5;}
	.st10{fill:#E5772E;}
	.st11{fill:#E62D7E;}
	.st12{fill:#E74525;}
	.st13{fill:#4E4E4E;}
	.st14{fill:#4F286E;}
	.st15{fill:#B21F2F;}
	.st16{opacity:0.15;}
	.st17{fill:#1A8ABA;}
	.st18{fill:#B5CAD7;}
	.st19{fill:#1B468E;}
	.st20{fill:#1B88AD;}
	.st21{fill:#1B92D0;}
	.st22{fill:#1D839F;}
	.st23{fill:#1D8CB2;}
	.st24{fill:#1E3F77;}
	.st25{fill:#ED2A26;}
	.st26{fill:#ED7826;}
	.st27{fill:#ED802C;}
	.st28{fill:#EDC92C;}
	.st29{fill:#EDF0F3;}
	.st30{fill:#1F7F98;}
	.st31{fill:#518E42;}
	.st32{fill:#EF4923;}
	.st33{fill:#EF4E23;}
	.st34{fill:#527FA2;}
	.st35{fill:#539A44;}
	.st36{fill:#BA202D;}
	.st37{fill:#BA202E;}
	.st38{fill:#5880C0;}
	.st39{fill:#BC2B2A;}
	.st40{fill:#F09520;}
	.st41{fill:#24488E;}
	.st42{fill:#F3C716;}
	.st43{fill:#5BA545;}
	.st44{fill:#F68D2C;}
	.st45{fill:#284A9E;}
	.st46{fill:#F9A11C;}
	.st47{fill:#5F2C80;}
	.st48{fill:#C0C130;}
	.st49{fill:#C52232;}
	.st50{fill:#C6C5C5;}
	.st51{fill:#C7D02D;}
	.st52{fill:#C7D8E5;}
	.st53{fill:#C8C8C8;}
	.st54{fill:#2E4D72;}
	.st55{fill:#FDD14C;}
	.st56{opacity:0.1;}
	.st57{fill:#FFFFFF;}
	.st58{fill:none;}
	.st59{fill:#CA2128;}
	.st60{fill:#9B4A9B;}
	.st61{fill:#CBDB2B;}
	.st62{fill:#CC202D;}
	.st63{fill:#CC3731;}
	.st64{fill:#CCCBCB;}
	.st65{fill:#CD7028;}
	.st66{fill:#303A49;}
	.st67{fill:#306B81;}
	.st68{fill:#CE6028;}
	.st69{fill:#345387;}
	.st70{fill:#37759B;}
	.st71{fill:#377CA5;}
	.st72{fill:#01A961;}
	.st73{fill-rule:evenodd;clip-rule:evenodd;fill:#FFFFFF;}
	.st74{fill:#D1D1D1;}
	.st75{fill:#D23D28;}
	.st76{fill:#D42028;}
	.st77{fill:#D42428;}
	.st78{fill:#D4E5F6;}
	.st79{fill:#3A58A6;}
	.st80{fill:#3A5A98;}
	.st81{fill:#D56727;}
	.st82{fill:#D5D5D5;}
	.st83{fill:#3C485B;}
	.st84{fill:#3D80B2;}
	.st85{fill:#702C90;}
	.st86{fill:#A52728;}
	.st87{fill:#0BA0A0;}
	.st88{fill:#0CAEB1;}
	.st89{fill:#DB6D27;}
	.st90{fill:#DC4127;}
	.st91{fill:#A91E30;}
	.st92{fill:#0EA2A4;}
	.st93{fill:#4077B5;}
	.st94{fill:#407CA8;}
	.st95{fill:#0FB2BC;}
	.st96{fill:#416B82;}
	.st97{fill:#DF8326;}
	.st98{fill:#44546B;}
]]>
</style>
<g>
	<g>
		<g>
			<g>
				<circle class="st76" cx="68.416" cy="68.417" r="63.333"/>
			</g>
		</g>
	</g>
	<g>
		<g>
			<g>
				<path class="st49" d="M113.199,23.633c24.733,24.732,24.734,64.832,0,89.566c-24.733,24.734-64.834,24.734-89.566,0.001
					L113.199,23.633z"/>
			</g>
		</g>
		<g>
			<path class="st15" d="M131.111,77.334L98.164,44.387l-8.667,8.667L78.164,41.721l-3.5,3.5l-7.667-7.667l-26.7,26.7l7.667,7.667
				l-9.501,9.5l11.334,11.333l-2,2l6.166,6.167l-5.5,5.501l25.104,25.103C103.166,129.14,127.012,106.418,131.111,77.334z"/>
		</g>
	</g>
	<path id="Path" class="st57" d="M51.439,37.978c-9.52,3.771-15.986,11.035-17.793,20.82c-1.109,6.013-0.688,12.567,1.965,18.181
		c0.592,1.247,1.301,2.449,2.145,3.56c0.409,0.542,0.848,1.06,1.324,1.552c0.845-0.302,1.66-0.678,2.438-1.118
		c3.218-1.816,5.592-4.615,8.348-6.966c-9.212-10.672,0.55-23.895,12.761-26.843c11.368-2.74,26.775,1.989,30.223,13.686
		c1.426,4.844,0.492,10.199-3.458,13.706c-2.065,1.836-4.688,3.049-7.46,3.543c-1.619,0.287-3.281,0.332-4.918,0.172
		c-0.912-0.092-1.818-0.246-2.711-0.456c-1.512-0.356-2.857-0.304-2.857-1.935c0-4.261,0-8.524,0-12.788c0-2.129,0-4.262,0-6.395
		c0-1.307,0.128-1.061-0.956-1.195c-0.856-0.105-1.71-0.188-2.567-0.256c-3.016-0.236-6.169-0.398-9.16,0.117
		c-1.119,0.193-1.19,0.013-1.19,1.227c0,0.983,0,1.966,0,2.946c0,2.39,0,4.779,0,7.169c0,7.142,0.538,14.368,0.243,21.499
		c-0.086,2.125-0.145,7.225-2.523,8.277c-2.756,1.219-5.193-1.359-7.736-1.896c0.35,3.58-1.89,10.672,2.283,12.479
		c3.826,1.656,8.229,2.273,12.262,0.905c8.451-2.866,11.184-12.271,10.113-19.999c13.045,3.898,27.125-2.623,32.703-14.402
		c3.973-8.388,2.295-18.806-3.686-25.938C90.029,34.267,67.292,31.705,51.439,37.978z"/>
</g>
</svg>
