<?xml version="1.0" encoding="utf-8"?>
<!-- Generator: Adobe Illustrator 16.0.0, SVG Export Plug-In . SVG Version: 6.00 Build 0)  -->
<!DOCTYPE svg PUBLIC "-//W3C//DTD SVG 1.1//EN" "http://www.w3.org/Graphics/SVG/1.1/DTD/svg11.dtd">
<svg version="1.1" id="Layer_1" xmlns="http://www.w3.org/2000/svg" xmlns:xlink="http://www.w3.org/1999/xlink" x="0px" y="0px"
	 width="136.833px" height="136.833px" viewBox="0 0 136.833 136.833" style="enable-background:new 0 0 136.833 136.833;"
	 xml:space="preserve">
<style type="text/css">
<![CDATA[
	.st0{fill:#467593;}
	.st1{fill:#10ABB6;}
	.st2{fill:#118241;}
	.st3{fill:#E14E42;}
	.st4{fill:#E17F2C;}
	.st5{fill:#E1E1E1;}
	.st6{fill:#13B3CA;}
	.st7{fill:#143E68;}
	.st8{fill:#16467C;}
	.st9{fill:#4A86C5;}
	.st10{fill:#E5772E;}
	.st11{fill:#E62D7E;}
	.st12{fill:#E74525;}
	.st13{fill:#4E4E4E;}
	.st14{fill:#4F286E;}
	.st15{fill:#B21F2F;}
	.st16{opacity:0.15;}
	.st17{fill:#1A8ABA;}
	.st18{fill:#B5CAD7;}
	.st19{fill:#1B468E;}
	.st20{fill:#1B88AD;}
	.st21{fill:#1B92D0;}
	.st22{fill:#1D839F;}
	.st23{fill:#1D8CB2;}
	.st24{fill:#1E3F77;}
	.st25{fill:#ED2A26;}
	.st26{fill:#ED7826;}
	.st27{fill:#ED802C;}
	.st28{fill:#EDC92C;}
	.st29{fill:#EDF0F3;}
	.st30{fill:#1F7F98;}
	.st31{fill:#518E42;}
	.st32{fill:#EF4923;}
	.st33{fill:#EF4E23;}
	.st34{fill:#527FA2;}
	.st35{fill:#539A44;}
	.st36{fill:#BA202D;}
	.st37{fill:#BA202E;}
	.st38{fill:#5880C0;}
	.st39{fill:#BC2B2A;}
	.st40{fill:#F09520;}
	.st41{fill:#24488E;}
	.st42{fill:#F3C716;}
	.st43{fill:#5BA545;}
	.st44{fill:#F68D2C;}
	.st45{fill:#284A9E;}
	.st46{fill:#F9A11C;}
	.st47{fill:#5F2C80;}
	.st48{fill:#C0C130;}
	.st49{fill:#C52232;}
	.st50{fill:#C6C5C5;}
	.st51{fill:#C7D02D;}
	.st52{fill:#C7D8E5;}
	.st53{fill:#C8C8C8;}
	.st54{fill:#2E4D72;}
	.st55{fill:#FDD14C;}
	.st56{opacity:0.1;}
	.st57{fill:#FFFFFF;}
	.st58{fill:none;}
	.st59{fill:#CA2128;}
	.st60{fill:#9B4A9B;}
	.st61{fill:#CBDB2B;}
	.st62{fill:#CC202D;}
	.st63{fill:#CC3731;}
	.st64{fill:#CCCBCB;}
	.st65{fill:#CD7028;}
	.st66{fill:#303A49;}
	.st67{fill:#306B81;}
	.st68{fill:#CE6028;}
	.st69{fill:#345387;}
	.st70{fill:#37759B;}
	.st71{fill:#377CA5;}
	.st72{fill:#01A961;}
	.st73{fill-rule:evenodd;clip-rule:evenodd;fill:#FFFFFF;}
	.st74{fill:#D1D1D1;}
	.st75{fill:#D23D28;}
	.st76{fill:#D42028;}
	.st77{fill:#D42428;}
	.st78{fill:#D4E5F6;}
	.st79{fill:#3A58A6;}
	.st80{fill:#3A5A98;}
	.st81{fill:#D56727;}
	.st82{fill:#D5D5D5;}
	.st83{fill:#3C485B;}
	.st84{fill:#3D80B2;}
	.st85{fill:#702C90;}
	.st86{fill:#A52728;}
	.st87{fill:#0BA0A0;}
	.st88{fill:#0CAEB1;}
	.st89{fill:#DB6D27;}
	.st90{fill:#DC4127;}
	.st91{fill:#A91E30;}
	.st92{fill:#0EA2A4;}
	.st93{fill:#4077B5;}
	.st94{fill:#407CA8;}
	.st95{fill:#0FB2BC;}
	.st96{fill:#416B82;}
	.st97{fill:#DF8326;}
	.st98{fill:#44546B;}
]]>
</style>
<g>
	<g>
		<g>
			<g>
				<circle class="st85" cx="68.291" cy="68.293" r="63.333"/>
			</g>
		</g>
	</g>
	<g>
		<g>
			<path class="st47" d="M113.326,23.758c24.732,24.732,24.732,64.832-0.002,89.566c-24.732,24.732-64.834,24.732-89.566,0
				L113.326,23.758z"/>
		</g>
		<g>
			<path class="st14" d="M130.236,81.499l-27.23-28.73l-4.117,3.902l-3.383-3.568l-8.643,8.189l-7.529-7.943l-3.654,3.465
				L65.412,46.545l-4.709,4.708l-4.5-4.499l-4.313,4.312l4.5,4.5l-3.438,3.437L41.371,47.42l-2.418,2.417l-2.916-2.917l-4.313,4.313
				l34.049,34.049l-6.104,6.104l-2.299-2.299l-1.918,1.916l-1.916-1.916l-2.979,2.979l36.676,36.677
				C108.851,121.975,125.476,103.928,130.236,81.499z"/>
		</g>
	</g>
	<path id="Yahoo_x21__2_" class="st57" d="M92.714,57.856c-1.857,0.5-18.834,13.666-19.953,16.896
		c-0.248,1.115,0.023,11.937,0.27,13.559c1.119,0.249,9.197,0.031,10.678,0.28l-0.178,3.345c-1.451-0.112-11.715-0.086-17.57-0.086
		c-2.975,0-12.543,0.329-15.48,0.243l0.557-3.185c1.613-0.118,8.283,0.297,9.746-1.26c0.727-0.775,0.5-11.059,0.252-12.798
		c-0.617-1.86-15.496-20.503-19.385-23.558H31.628v-4.686h33.795v0.322c0.031,0,0.086,0.006,0.115,0.012l-0.115,0.792v3.56H55.234
		c4.543,6.643,11.055,14.662,13.832,18.516l13.611-12.336h-8.09l-1.141-4.682h29.641l-0.219,0.334c0.023,0,0.072,0.005,0.104,0.005
		l-2.117,3.071c-0.02,0-0.051,0.005-0.066,0.01l-0.855,1.262h-5.467C93.757,57.629,93.134,57.768,92.714,57.856z M102.384,87.208
		l-2.617-0.131l-2.918-0.355l0.023,5.006l2.303,0.199l2.482,0.182L102.384,87.208z M107.464,63.285
		c-0.883-0.031-8.912-0.792-9.955-0.997l0.123,21.143l4.543,0.367L107.464,63.285z"/>
</g>
</svg>
