<?xml version="1.0" encoding="utf-8"?>
<!-- Generator: Adobe Illustrator 16.0.0, SVG Export Plug-In . SVG Version: 6.00 Build 0)  -->
<!DOCTYPE svg PUBLIC "-//W3C//DTD SVG 1.1//EN" "http://www.w3.org/Graphics/SVG/1.1/DTD/svg11.dtd">
<svg version="1.1" id="Layer_1" xmlns="http://www.w3.org/2000/svg" xmlns:xlink="http://www.w3.org/1999/xlink" x="0px" y="0px"
	 width="136.833px" height="136.834px" viewBox="0 0 136.833 136.834" style="enable-background:new 0 0 136.833 136.834;"
	 xml:space="preserve">
<style type="text/css">
<![CDATA[
	.st0{fill:#467593;}
	.st1{fill:#10ABB6;}
	.st2{fill:#118241;}
	.st3{fill:#E14E42;}
	.st4{fill:#E17F2C;}
	.st5{fill:#E1E1E1;}
	.st6{fill:#13B3CA;}
	.st7{fill:#143E68;}
	.st8{fill:#16467C;}
	.st9{fill:#4A86C5;}
	.st10{fill:#E5772E;}
	.st11{fill:#E62D7E;}
	.st12{fill:#E74525;}
	.st13{fill:#4E4E4E;}
	.st14{fill:#4F286E;}
	.st15{fill:#B21F2F;}
	.st16{opacity:0.15;}
	.st17{fill:#1A8ABA;}
	.st18{fill:#B5CAD7;}
	.st19{fill:#1B468E;}
	.st20{fill:#1B88AD;}
	.st21{fill:#1B92D0;}
	.st22{fill:#1D839F;}
	.st23{fill:#1D8CB2;}
	.st24{fill:#1E3F77;}
	.st25{fill:#ED2A26;}
	.st26{fill:#ED7826;}
	.st27{fill:#ED802C;}
	.st28{fill:#EDC92C;}
	.st29{fill:#EDF0F3;}
	.st30{fill:#1F7F98;}
	.st31{fill:#518E42;}
	.st32{fill:#EF4923;}
	.st33{fill:#EF4E23;}
	.st34{fill:#527FA2;}
	.st35{fill:#539A44;}
	.st36{fill:#BA202D;}
	.st37{fill:#BA202E;}
	.st38{fill:#5880C0;}
	.st39{fill:#BC2B2A;}
	.st40{fill:#F09520;}
	.st41{fill:#24488E;}
	.st42{fill:#F3C716;}
	.st43{fill:#5BA545;}
	.st44{fill:#F68D2C;}
	.st45{fill:#284A9E;}
	.st46{fill:#F9A11C;}
	.st47{fill:#5F2C80;}
	.st48{fill:#C0C130;}
	.st49{fill:#C52232;}
	.st50{fill:#C6C5C5;}
	.st51{fill:#C7D02D;}
	.st52{fill:#C7D8E5;}
	.st53{fill:#C8C8C8;}
	.st54{fill:#2E4D72;}
	.st55{fill:#FDD14C;}
	.st56{opacity:0.1;}
	.st57{fill:#FFFFFF;}
	.st58{fill:none;}
	.st59{fill:#CA2128;}
	.st60{fill:#9B4A9B;}
	.st61{fill:#CBDB2B;}
	.st62{fill:#CC202D;}
	.st63{fill:#CC3731;}
	.st64{fill:#CCCBCB;}
	.st65{fill:#CD7028;}
	.st66{fill:#303A49;}
	.st67{fill:#306B81;}
	.st68{fill:#CE6028;}
	.st69{fill:#345387;}
	.st70{fill:#37759B;}
	.st71{fill:#377CA5;}
	.st72{fill:#01A961;}
	.st73{fill-rule:evenodd;clip-rule:evenodd;fill:#FFFFFF;}
	.st74{fill:#D1D1D1;}
	.st75{fill:#D23D28;}
	.st76{fill:#D42028;}
	.st77{fill:#D42428;}
	.st78{fill:#D4E5F6;}
	.st79{fill:#3A58A6;}
	.st80{fill:#3A5A98;}
	.st81{fill:#D56727;}
	.st82{fill:#D5D5D5;}
	.st83{fill:#3C485B;}
	.st84{fill:#3D80B2;}
	.st85{fill:#702C90;}
	.st86{fill:#A52728;}
	.st87{fill:#0BA0A0;}
	.st88{fill:#0CAEB1;}
	.st89{fill:#DB6D27;}
	.st90{fill:#DC4127;}
	.st91{fill:#A91E30;}
	.st92{fill:#0EA2A4;}
	.st93{fill:#4077B5;}
	.st94{fill:#407CA8;}
	.st95{fill:#0FB2BC;}
	.st96{fill:#416B82;}
	.st97{fill:#DF8326;}
	.st98{fill:#44546B;}
]]>
</style>
<g>
	<g>
		<g>
			<g>
				<circle class="st6" cx="68.417" cy="68.417" r="63.335"/>
			</g>
		</g>
		<g>
			<g>
				<path class="st1" d="M113.202,23.633c24.733,24.732,24.735,64.833-0.001,89.568c-24.733,24.734-64.836,24.734-89.568,0.002
					L113.202,23.633z"/>
			</g>
		</g>
		<g>
			<path class="st92" d="M131.176,76.855l-17.117-17.117l-1.411,1.41L91.085,39.586l-1.118,1.117l-2.588-2.588l-3.162,3.162
				l-2.562-2.561l-4.121,4.12l5.029,5.028L63.252,67.177l-18.82-18.818l-4.12,4.119l5.424,5.423l-3.817,3.816l6.227,6.227
				l-2.745,2.745l7.586,7.587l-1.238,1.239l6.963,6.964l-8.179,8.18l-6.093-6.092l-5.885,5.885l-7.302-7.303l-1.468,1.469
				l42.971,42.971C102.893,129.547,127.234,106.434,131.176,76.855z"/>
		</g>
	</g>
	<path id="Twitter__x28_alt_x29__1_" class="st57" d="M104.094,65.691c5.062-0.417,8.494-2.719,9.816-5.841
		c-1.827,1.122-7.495,2.345-10.625,1.179c-0.153-0.734-0.324-1.434-0.492-2.063c-2.385-8.759-10.551-15.813-19.107-14.962
		c0.692-0.279,1.396-0.54,2.095-0.773c0.941-0.338,6.467-1.238,5.598-3.188c-0.734-1.715-7.485,1.297-8.756,1.691
		c1.678-0.631,4.453-1.717,4.749-3.645c-2.571,0.352-5.094,1.568-7.043,3.336c0.703-0.759,1.237-1.682,1.351-2.676
		c-6.859,4.38-10.865,13.211-14.105,21.778c-2.545-2.466-4.801-4.409-6.826-5.487c-5.677-3.046-12.465-6.223-23.121-10.178
		c-0.327,3.525,1.743,8.214,7.709,11.331c-1.293-0.173-3.654,0.214-5.547,0.666c0.771,4.039,3.284,7.366,10.095,8.976
		c-3.112,0.205-4.72,0.913-6.177,2.439c1.415,2.809,4.874,6.115,11.092,5.436c-6.913,2.98-2.817,8.502,2.81,7.678
		c-9.6,9.916-24.736,9.188-33.427,0.895c22.692,30.921,72.021,18.286,79.369-11.497c5.508,0.046,8.746-1.908,10.753-4.062
		C111.131,67.263,106.532,66.707,104.094,65.691z"/>
</g>
</svg>
