<?xml version="1.0" encoding="utf-8"?>
<!-- Generator: Adobe Illustrator 16.0.0, SVG Export Plug-In . SVG Version: 6.00 Build 0)  -->
<!DOCTYPE svg PUBLIC "-//W3C//DTD SVG 1.1//EN" "http://www.w3.org/Graphics/SVG/1.1/DTD/svg11.dtd">
<svg version="1.1" id="Layer_1" xmlns="http://www.w3.org/2000/svg" xmlns:xlink="http://www.w3.org/1999/xlink" x="0px" y="0px"
	 width="136.833px" height="136.834px" viewBox="0 0 136.833 136.834" style="enable-background:new 0 0 136.833 136.834;"
	 xml:space="preserve">
<style type="text/css">
<![CDATA[
	.st0{fill:#467593;}
	.st1{fill:#10ABB6;}
	.st2{fill:#118241;}
	.st3{fill:#E14E42;}
	.st4{fill:#E17F2C;}
	.st5{fill:#E1E1E1;}
	.st6{fill:#13B3CA;}
	.st7{fill:#143E68;}
	.st8{fill:#16467C;}
	.st9{fill:#4A86C5;}
	.st10{fill:#E5772E;}
	.st11{fill:#E62D7E;}
	.st12{fill:#E74525;}
	.st13{fill:#4E4E4E;}
	.st14{fill:#4F286E;}
	.st15{fill:#B21F2F;}
	.st16{opacity:0.15;}
	.st17{fill:#1A8ABA;}
	.st18{fill:#B5CAD7;}
	.st19{fill:#1B468E;}
	.st20{fill:#1B88AD;}
	.st21{fill:#1B92D0;}
	.st22{fill:#1D839F;}
	.st23{fill:#1D8CB2;}
	.st24{fill:#1E3F77;}
	.st25{fill:#ED2A26;}
	.st26{fill:#ED7826;}
	.st27{fill:#ED802C;}
	.st28{fill:#EDC92C;}
	.st29{fill:#EDF0F3;}
	.st30{fill:#1F7F98;}
	.st31{fill:#518E42;}
	.st32{fill:#EF4923;}
	.st33{fill:#EF4E23;}
	.st34{fill:#527FA2;}
	.st35{fill:#539A44;}
	.st36{fill:#BA202D;}
	.st37{fill:#BA202E;}
	.st38{fill:#5880C0;}
	.st39{fill:#BC2B2A;}
	.st40{fill:#F09520;}
	.st41{fill:#24488E;}
	.st42{fill:#F3C716;}
	.st43{fill:#5BA545;}
	.st44{fill:#F68D2C;}
	.st45{fill:#284A9E;}
	.st46{fill:#F9A11C;}
	.st47{fill:#5F2C80;}
	.st48{fill:#C0C130;}
	.st49{fill:#C52232;}
	.st50{fill:#C6C5C5;}
	.st51{fill:#C7D02D;}
	.st52{fill:#C7D8E5;}
	.st53{fill:#C8C8C8;}
	.st54{fill:#2E4D72;}
	.st55{fill:#FDD14C;}
	.st56{opacity:0.1;}
	.st57{fill:#FFFFFF;}
	.st58{fill:none;}
	.st59{fill:#CA2128;}
	.st60{fill:#9B4A9B;}
	.st61{fill:#CBDB2B;}
	.st62{fill:#CC202D;}
	.st63{fill:#CC3731;}
	.st64{fill:#CCCBCB;}
	.st65{fill:#CD7028;}
	.st66{fill:#303A49;}
	.st67{fill:#306B81;}
	.st68{fill:#CE6028;}
	.st69{fill:#345387;}
	.st70{fill:#37759B;}
	.st71{fill:#377CA5;}
	.st72{fill:#01A961;}
	.st73{fill-rule:evenodd;clip-rule:evenodd;fill:#FFFFFF;}
	.st74{fill:#D1D1D1;}
	.st75{fill:#D23D28;}
	.st76{fill:#D42028;}
	.st77{fill:#D42428;}
	.st78{fill:#D4E5F6;}
	.st79{fill:#3A58A6;}
	.st80{fill:#3A5A98;}
	.st81{fill:#D56727;}
	.st82{fill:#D5D5D5;}
	.st83{fill:#3C485B;}
	.st84{fill:#3D80B2;}
	.st85{fill:#702C90;}
	.st86{fill:#A52728;}
	.st87{fill:#0BA0A0;}
	.st88{fill:#0CAEB1;}
	.st89{fill:#DB6D27;}
	.st90{fill:#DC4127;}
	.st91{fill:#A91E30;}
	.st92{fill:#0EA2A4;}
	.st93{fill:#4077B5;}
	.st94{fill:#407CA8;}
	.st95{fill:#0FB2BC;}
	.st96{fill:#416B82;}
	.st97{fill:#DF8326;}
	.st98{fill:#44546B;}
]]>
</style>
<g>
	<g>
		<g>
			<g>
				<circle class="st77" cx="68.417" cy="68.417" r="63.333"/>
			</g>
		</g>
	</g>
	<path class="st62" d="M113.199,23.632c24.732,24.734,24.734,64.834,0,89.568c-24.732,24.732-64.834,24.733-89.568,0L113.199,23.632
		z"/>
	<g>
		<path class="st37" d="M130.785,79.377L88.164,36.756l-3.438,3.438l-3.438-3.438l-3.768,3.768l2.531,2.531l-0.826,0.826
			l-6.563-6.563L72.382,37.6l-8.844-8.844l-3.768,3.768l1.031,1.031l-1.514,1.514l-6.375-6.375l-2.643,2.643l6.215,14.967
			l-2.799,11.491l7.652,7.654l-19.354,1.354l-0.293,33.585l31.145,31.183C102.017,129.498,125.845,107.671,130.785,79.377z"/>
	</g>
	<path id="YouTube_2_" class="st57" d="M91.072,83.104h-4.086l0.02-2.372c0-1.055,0.865-1.916,1.924-1.916h0.262
		c1.059,0,1.928,0.861,1.928,1.916L91.072,83.104z M75.753,78.021c-1.033,0-1.881,0.697-1.881,1.549v11.535
		c0,0.852,0.848,1.545,1.881,1.545c1.041,0,1.889-0.693,1.889-1.545V79.569C77.642,78.718,76.794,78.021,75.753,78.021z
		 M100.626,71.57v21.942c0,5.264-4.564,9.57-10.145,9.57H48.771c-5.582,0-10.145-4.307-10.145-9.57V71.57
		c0-5.264,4.563-9.572,10.145-9.572h41.711C96.062,61.998,100.626,66.307,100.626,71.57z M51.552,95.895L51.55,72.781l5.17,0.002
		v-3.426l-13.783-0.021v3.366l4.303,0.013v23.179H51.552z M67.052,76.225h-4.311v12.342c0,1.786,0.107,2.679-0.006,2.993
		c-0.352,0.957-1.928,1.973-2.541,0.104c-0.104-0.328-0.012-1.316-0.014-3.013l-0.02-12.427h-4.287l0.016,12.231
		c0.002,1.875-0.043,3.273,0.014,3.909c0.105,1.122,0.066,2.431,1.109,3.176c1.938,1.399,5.656-0.208,6.586-2.205l-0.008,2.548
		l3.461,0.005V76.225z M80.843,90.358l-0.008-10.273c-0.004-3.916-2.932-6.261-6.91-3.093l0.018-7.638l-4.307,0.007l-0.021,26.361
		l3.541-0.052l0.322-1.643C78.005,98.183,80.851,95.337,80.843,90.358z M94.337,88.997l-3.234,0.017
		c0,0.129-0.006,0.276-0.008,0.438v1.804c0,0.965-0.797,1.751-1.766,1.751h-0.633c-0.971,0-1.768-0.786-1.768-1.751v-0.2V89.07
		V86.51h7.402v-2.786c0-2.035-0.053-4.07-0.221-5.234c-0.529-3.683-5.697-4.267-8.309-2.382c-0.82,0.589-1.445,1.377-1.811,2.437
		c-0.367,1.059-0.549,2.504-0.549,4.342v6.125C83.443,99.194,95.81,97.755,94.337,88.997z M77.755,55.741
		c0.221,0.542,0.566,0.979,1.037,1.311c0.461,0.324,1.055,0.489,1.764,0.489c0.621,0,1.172-0.168,1.65-0.515
		c0.479-0.345,0.883-0.859,1.211-1.547l-0.082,1.692h4.805V36.735h-3.783v15.905c0,0.86-0.711,1.565-1.578,1.565
		c-0.861,0-1.574-0.705-1.574-1.565V36.735h-3.947v13.783c0,1.756,0.031,2.927,0.084,3.521
		C77.398,54.629,77.533,55.194,77.755,55.741z M63.193,44.199c0-1.962,0.164-3.493,0.488-4.597c0.326-1.101,0.916-1.986,1.766-2.652
		c0.85-0.671,1.938-1.006,3.258-1.006c1.111,0,2.064,0.219,2.861,0.646c0.797,0.43,1.416,0.987,1.842,1.676
		c0.438,0.691,0.732,1.402,0.891,2.129c0.162,0.736,0.24,1.849,0.24,3.346v5.169c0,1.896-0.076,3.29-0.223,4.176
		c-0.145,0.888-0.459,1.711-0.945,2.482c-0.48,0.764-1.1,1.335-1.852,1.699c-0.758,0.369-1.625,0.549-2.607,0.549
		c-1.094,0-2.018-0.151-2.777-0.468c-0.762-0.314-1.352-0.788-1.771-1.417c-0.426-0.63-0.723-1.397-0.902-2.291
		c-0.182-0.895-0.268-2.238-0.268-4.03V44.199z M66.955,52.318c0,1.156,0.863,2.101,1.912,2.101s1.906-0.944,1.906-2.101v-10.88
		c0-1.156-0.857-2.101-1.906-2.101s-1.912,0.944-1.912,2.101V52.318z M53.656,57.811h4.535l0.004-15.674l5.357-13.427h-4.959
		l-2.848,9.975l-2.889-10.001h-4.906l5.699,13.462L53.656,57.811z"/>
</g>
</svg>
